<svg xmlns="http://www.w3.org/2000/svg" width="129.254" height="92.049" viewBox="0 0 129.254 92.049">
  <g id="Group_1" data-name="Group 1" transform="translate(0 0.049)">
    <path id="Path_169" data-name="Path 169" d="M22.579,34.231l-.04-.057v.048Z" transform="translate(8.897)" fill="#fff"/>
    <path id="Path_170" data-name="Path 170" d="M16.357,50.16l.389.053c-.128-.105-.255-.22-.376-.325A.746.746,0,0,1,16.357,50.16Z" transform="translate(6.457)" fill="#fff"/>
    <path id="Path_171" data-name="Path 171" d="M15.2,21.566q-.19.024-.382.034L17.79,23.24a.216.216,0,0,0,.089.021.223.223,0,0,0,.091-.017.149.149,0,0,0,.064-.049.092.092,0,0,0,.018-.066,9.137,9.137,0,0,1-.376-2.522.4.4,0,0,1,.04-.211C17.428,20.924,16.6,21.374,15.2,21.566Z" transform="translate(5.849)" fill="#fff"/>
    <path id="Path_172" data-name="Path 172" d="M16.984,19.92l.04-.105h-.047C16.978,19.853,16.984,19.886,16.984,19.92Z" transform="translate(6.702)" fill="#fff"/>
    <path id="Path_173" data-name="Path 173" d="M15.149,35.356c-.356-.072-.711-.139-1.08-.2a26.49,26.49,0,0,1-4.6-1.435.216.216,0,0,0-.121-.018.175.175,0,0,0-.1.049.09.09,0,0,0-.025.086.121.121,0,0,0,.068.074A14.261,14.261,0,0,0,15.4,35.983a14.335,14.335,0,0,1,2.57.479l-.094-.4a4.216,4.216,0,0,1-1.487-.109A3.306,3.306,0,0,1,15.149,35.356Z" transform="translate(3.639)" fill="#fff"/>
    <path id="Path_174" data-name="Path 174" d="M13.308,49.189l.4.263.429.081-.611.172.825-.134h.06l-.443-.407.671.45.671.124-.242-.048-.973.278,1.342-.211-.718-.646,1.1.718.382.072-1.342.383,1.818-.292-.986-.885,1.51.957.409.081.671.12v-.091l-.389-.053a.747.747,0,0,0,0-.273,1.154,1.154,0,0,0-.386-.585,1.892,1.892,0,0,0-.741-.372,4.417,4.417,0,0,0-.725-.2,8.045,8.045,0,0,0-3.489.479l1.033.2Z" transform="translate(4.957)" fill="#fff"/>
    <path id="Path_175" data-name="Path 175" d="M12.884,49.486l.483-.076-.127-.024Z" transform="translate(5.086)" fill="#fff"/>
    <path id="Path_176" data-name="Path 176" d="M18.263,50.309l-.671-.12-.409-.081-1.51-.957.986.885-1.818.292,1.342-.383-.383-.072-1.1-.718.738.608-1.342.21.973-.278.242.048-.671-.124-.671-.45.443.407h-.06l-.825.134.611-.172-.429-.081-.4-.263.262.234-1.033-.2a5.776,5.776,0,0,0,2.684,1.646c1.449.278,2.3-.029,2.57-.569l.409.1.06-.168Zm-5.241-.823.356-.1.127.024Z" transform="translate(4.947)" fill="#fff"/>
    <path id="Path_177" data-name="Path 177" d="M16.368,21.566c1.4-.191,2.228-.641,2.516-1.167a.874.874,0,0,0,.121-.479v-.1h.047l.517-.043-.094-.254.033.124-.886.12-.55.076-2.617-.565,1.906.66-1.912,1.115,1.3-1.014-.517.072L14.342,19.7l1.376.478-1.416.8.946-.732-.55.072-1.188-.254.866.3-.953.129-.671-.153.51.177h-.107l-.517.292.349-.268-1.127.153a11.36,11.36,0,0,0,4.093.9h.1Q16.212,21.587,16.368,21.566Zm-3-.7.591-.479.3-.038Z" transform="translate(4.681)" fill="#fff"/>
    <path id="Path_178" data-name="Path 178" d="M12.941,20.867l.886-.5-.3.038Z" transform="translate(5.108)" fill="#fff"/>
    <path id="Path_179" data-name="Path 179" d="M12.6,20.815l.517-.292h.107l-.51-.177.671.153.953-.129-.866-.3,1.188.254.55-.072-.946.732,1.416-.8L14.305,19.7l1.892.407.517-.072-1.235,1.014,1.953-1.1-1.906-.66,2.637.55.55-.077.886-.12-.094-.124-.376.067-.181.038c-.282-.737-1.443-1.191-3.355-.957a8.318,8.318,0,0,0-3.811,2l1.127-.153Z" transform="translate(4.651)" fill="#fff"/>
    <path id="Path_180" data-name="Path 180" d="M7.619,39.313l.872.383.087.1.081-.617.074.8.463.555-1.248-.364,1.49.646.067.077.148-1.048L9.8,41.2l.463.55L8.25,41.165,10.625,42.2v.029l.235-1.68.181,2.172.617.727-.195-.23-2.751-.8,3.274,1.436.322-2.316.242,2.967.443.531.161-.053L13,45.045l.718.847.235-.1-.483-.479c1.342-.68,1.644-2.125.1-3.952-1.61-1.914-6.1-2.871-6.1-2.871l.913,1.081Z" transform="translate(2.949)" fill="#fff"/>
    <path id="Path_181" data-name="Path 181" d="M14.02,45.772l-.235.1-.718-.847.161-.048-.154.067-.45-.546-.255-3-.322,2.316L8.773,42.385l2.751.8.195.23-.617-.727-.181-2.172-.235,1.68v-.029L8.29,41.15l2.013.584L9.873,41.2l-.114-1.359-.148,1.048-.067-.077-1.49-.646,1.248.364-.463-.555-.074-.8-.081.617L8.6,39.7l-.872-.383.738.215-.913-1.081s-.919,3.282.671,5.187c1.543,1.828,3.476,2.311,4.952,1.785l.181.254.215.3Z" transform="translate(2.876)" fill="#fff"/>
    <path id="Path_182" data-name="Path 182" d="M18.394,48.227l.671-.431H19.2l-.671-.206.953.163.772-.144-.745.656,1.094-.751-.2.038.309-.057-1.194-.349,1.624.273.725-.134-1.194,1.043,1.805-1.158h.04l-1.9-.565,2.6.431,1.214-.22-.53.1-1.624,1.436,2.483-1.6-2.63-.766,3.576.6.731-.134,1.168-.215-.054-.163-.725.167c-.463-.957-2.087-1.507-4.61-1.043a10.387,10.387,0,0,0-4.878,2.919l1.5-.273Z" transform="translate(6.842)" fill="#fff"/>
    <path id="Path_183" data-name="Path 183" d="M27.561,46.069l.054.163-1.168.215-.731.134-3.576-.6,2.637.77-2.483,1.6,1.624-1.435.53-.1-1.215.22-2.6-.431,1.912.56h-.04l-1.825,1.158,1.181-1.043-.725.134-1.624-.273,1.194.349-.309.057.2-.038-1.134.727.745-.656-.772.144-.953-.163.671.206h-.134l-.671.431.436-.388-1.5.273s3.617,1.368,6.247.885c2.53-.479,3.583-1.493,3.355-2.5l.745-.1Z" transform="translate(6.827)" fill="#fff"/>
    <path id="Path_184" data-name="Path 184" d="M14.05,28.762l-.671-.4.738.6Z" transform="translate(5.281)" fill="#fff"/>
    <path id="Path_185" data-name="Path 185" d="M16.82,35.628l-.221-.66,1.127-3.2L16.31,34.116l-2.771-2.268,2.51,1.493-.208-.622.812-2.326L15.626,32.1v-.034l-2.013-1.646L15.431,31.5l-.221-.656.517-1.435-.671,1.067-.034-.1-1.235-1.053,1.141.679.1.3-.329-1,.3-.852-.362.627-.564-1.68s-2.51,3.211-1.711,5.6a4.574,4.574,0,0,0,1.6,2.34,3.312,3.312,0,0,0,1.238.6,4.218,4.218,0,0,0,1.487.107l.094.4.067.278.3-.048Zm-2.308-6.866.067.206-.738-.6Z" transform="translate(4.819)" fill="#fff"/>
    <path id="Path_186" data-name="Path 186" d="M16.9,36.188l-.094-.206c1.731-.4,2.684-1.842,1.946-4.125-.8-2.392-5.066-4.445-5.066-4.445l.584,1.68.382-.627-.3.852.329,1-.1-.3-1.141-.679,1.261,1.034.034.1.671-1.067-.517,1.435.221.656L13.286,30.4,15.3,32.049v.034l.98-1.689-.819,2.326.208.622-2.51-1.493,2.771,2.268,1.416-2.349-1.127,3.2.221.66.356,1.057.221-.038h.067Z" transform="translate(5.194)" fill="#fff"/>
    <path id="Path_187" data-name="Path 187" d="M19.239,33.495l.483-.072H19.8l-.248-.239.389.268.416.086-.6.163.819-.12h.06l-.429-.407.671.479.4.081-.98.239,1.342-.187-.671-.646,1.06.722.376.081L21.05,34.3l1.8-.258-.946-.89,1.456,1,.4.086.637.134.04-.091-.369-.057H24.03v-.048a.743.743,0,0,0-.1-.536,1.157,1.157,0,0,0-.477-.421,3.892,3.892,0,0,0-1.194-.426,8.032,8.032,0,0,0-3.462.4l.819.172Z" transform="translate(7.419)" fill="#fff"/>
    <path id="Path_188" data-name="Path 188" d="M24.437,34.289l-.04.091-.638-.134-.4-.086-1.456-1,.946.89-1.8.258,1.342-.354-.376-.081-1.06-.722.671.646-1.342.187.973-.258-.4-.081-.671-.478.429.407h-.06l-.819.12.6-.163-.416-.086-.389-.268.248.239h-.074l-.483.072.362-.1-.819-.172a5.59,5.59,0,0,0,2.61,1.675c1.436.3,2.275,0,2.557-.522l.221.062.181.043Z" transform="translate(7.408)" fill="#fff"/>
    <path id="Path_189" data-name="Path 189" d="M63.673,58.726l-.731.263c.557.191,1.121.383,1.684.56h.067A2.811,2.811,0,0,1,63.673,58.726Z" transform="translate(24.845)" fill="#fff"/>
    <path id="Path_190" data-name="Path 190" d="M34.131,25.547c-.094-.115-.181-.235-.262-.349a1.431,1.431,0,0,1-.087.273Z" transform="translate(13.335)" fill="#fff"/>
    <path id="Path_191" data-name="Path 191" d="M77.3,35.729l-.215.4c.376-.115.752-.215,1.134-.316A2.565,2.565,0,0,1,77.3,35.729Z" transform="translate(30.429)" fill="#fff"/>
    <path id="Path_192" data-name="Path 192" d="M54.205,11.3c.067.191.114.387.174.579l.268-.2A2.141,2.141,0,0,1,54.205,11.3Z" transform="translate(21.397)" fill="#fff"/>
    <path id="Path_193" data-name="Path 193" d="M68.131,20.647l-.08.163a2.235,2.235,0,0,1,.215-.23.184.184,0,0,0-.082.018A.113.113,0,0,0,68.131,20.647Z" transform="translate(26.862)" fill="#fff"/>
    <path id="Path_194" data-name="Path 194" d="M68.529,68.845c.772-1.828,0-3.828.959-5.78.966-1.68,1.865-3.105,4.7-3.464a16.87,16.87,0,0,0,3.261-1.148,3.8,3.8,0,0,1,1.57-.378c2.409.383,4.818.813,7.18,1.321,1.765.383,3.415,1.033,5.193,1.344a47.949,47.949,0,0,0,5.885.584,23.646,23.646,0,0,0,2.469-.038.188.188,0,0,0,.1-.042.094.094,0,0,0,0-.151.188.188,0,0,0-.1-.042c-.825-.029-1.644-.029-2.456-.076-1.4-.1-2.782-.268-4.147-.5-.832-.134-1.678-.249-2.51-.4a5.341,5.341,0,0,1-2.181-.507h-.067c-.564-.177-1.127-.368-1.684-.56l-.248.086-.121-.215c-1.832-.646-3.67-1.364-5.73-2.115a.157.157,0,0,1-.064-.044.091.091,0,0,1,0-.123.158.158,0,0,1,.064-.044c4.7-1.617,9.307-3.44,14.192-4.785,2.731-.737,5.817-.732,8.052,1.483,1.543,1.536,4.576,1.637,6.884.584a.143.143,0,0,0,.085-.065.085.085,0,0,0,0-.089.152.152,0,0,0-.091-.06.223.223,0,0,0-.124,0c-4.026.756-5.925.244-6.784-1.349a.088.088,0,0,1,0-.115c1.886-1.6,3.436-3.048,5.207-4.34a6.471,6.471,0,0,1,3.207-1.321c2.255-.105,4.543.206,6.817.3.825.034,1.657.029,2.59,0a.209.209,0,0,0,.119-.025.111.111,0,0,0,.059-.078.094.094,0,0,0-.035-.085.187.187,0,0,0-.109-.042l-4.932-.761c-3.61-.555-6.65-.081-9.065,2.144a25.489,25.489,0,0,1-4.382,2.794,2.346,2.346,0,0,1-.717.23,2.669,2.669,0,0,1-.786,0c-.644-.116-1.3-.2-1.959-.254l-.107.139-.235-.11-.134-.062a24.313,24.313,0,0,0-9.857,1.794c-.966.354-1.959.66-3.214,1.072a.221.221,0,0,1-.107.009.178.178,0,0,1-.091-.041.1.1,0,0,1-.034-.073.1.1,0,0,1,.038-.072c1.3-1.177,2.342-2.148,3.429-3.091a82.43,82.43,0,0,0,7.012-6.163,9.18,9.18,0,0,1,6.1-3.23,41.863,41.863,0,0,0,12.36-3.163,7.6,7.6,0,0,1,1.449-.364c1.466-.326,2.962-.581,4.476-.766,1.523-.074,3.051-.084,4.576-.029a23.473,23.473,0,0,0-12.8,1.531c-3.791,1.775-8.294,1.536-12.44,2.306a.231.231,0,0,1-.1-.008.166.166,0,0,1-.075-.045.1.1,0,0,1-.026-.067.1.1,0,0,1,.031-.066,5,5,0,0,1,1.161-.828c1.154-.579,2.489-.991,3.523-1.656a11.978,11.978,0,0,1,5.455-1.813,14.291,14.291,0,0,0,6.113-2.067.121.121,0,0,0,.068-.074.09.09,0,0,0-.025-.087.175.175,0,0,0-.1-.049.216.216,0,0,0-.121.018,26.575,26.575,0,0,1-4.6,1.435c-.758.124-1.49.278-2.208.445a2.931,2.931,0,0,1-.805.206c-.382.1-.758.2-1.134.316-1.309.392-2.59.847-3.892,1.349-3.858,1.488-5.9,3.89-8.387,6.22-3.637,3.383-7.77,6.5-11.7,9.723a.222.222,0,0,1-.215,0c-.2-.1-.4-.2-.611-.3a.128.128,0,0,1-.065-.067.089.089,0,0,1,.011-.081c1.3-1.876,2.281-3.909,3.979-5.57,3.657-3.589,7.421-7.091,10.065-11.159,3.462-5.373,6.535-10.723,13.286-14.718.805-.445-1.926.45-4.18,1.694a.218.218,0,0,1-.089.021.223.223,0,0,1-.091-.016.149.149,0,0,1-.064-.049.091.091,0,0,1-.018-.066,9.176,9.176,0,0,0,.382-2.522,8.535,8.535,0,0,0-.792-2.182.117.117,0,0,0-.056-.066.213.213,0,0,0-.2,0,.117.117,0,0,0-.056.066.928.928,0,0,0,.033.56,6.983,6.983,0,0,1-1.282,6.45q-1.959,2.5-3.838,5.038t-3.7,5.149A52.513,52.513,0,0,1,83.271,47.251a.182.182,0,0,1-.081.035.223.223,0,0,1-.094,0,.168.168,0,0,1-.076-.04.1.1,0,0,1-.031-.064c-.134-1.742-.228-3.105,1.765-4.4a63.743,63.743,0,0,0,7.381-5.919A4.076,4.076,0,0,0,93.6,33.7a.092.092,0,0,0-.03-.081.177.177,0,0,0-.1-.045.217.217,0,0,0-.115.015.128.128,0,0,0-.07.067,12.6,12.6,0,0,1-2.275,3.445c-.262.239-.537.479-.812.7l-.034.081h-.047A50.812,50.812,0,0,1,84.4,42.055c-1.671,1.057-2.765,2.278-2.744,3.766.047,2.747-1.449,5.12-2.684,7.622-1.342,2.7-4.361,3.689-7.589,4.512-2.134.541-3.073-.1-3.066-1.79,0-1.871.322-3.751.195-5.618a1.964,1.964,0,0,1,.315-1.317A3.039,3.039,0,0,1,70.012,48.2a27.729,27.729,0,0,0,3.355-2.019c2.523-2.058,5.489-4.043,5.663-6.991.2-3.263,2.832-5.149,6.576-6.34a11.774,11.774,0,0,0,3.686-1.817,7.928,7.928,0,0,0,2.353-2.719c.939-1.727,1.577-3.546,3.831-4.727a.185.185,0,0,0,.074-.139.085.085,0,0,0,0-.075.126.126,0,0,0-.061-.061.211.211,0,0,0-.1-.021.2.2,0,0,0-.1.028c-.463.278-1.577,1.158-1.973.981.208-.622.389-1.464.577-2.249l-.248.158-.08-.076-.081-.072.356-.172a.7.7,0,0,1-.2-.617,10.764,10.764,0,0,0-.55,1.565c-1.262,4.613-2.738,9.091-10.736,10.283a.231.231,0,0,1-.076.008.219.219,0,0,1-.073-.017.154.154,0,0,1-.054-.039.1.1,0,0,1-.025-.052q.188-1.33.376-2.646a.091.091,0,0,0-.03-.081.177.177,0,0,0-.1-.045.217.217,0,0,0-.115.015.128.128,0,0,0-.07.067c-.309.78-.517,1.584-.778,2.392a11.274,11.274,0,0,1-.993,1.914c-.671,1.2-1.859,2.354-2.013,3.584a6.167,6.167,0,0,1-2.013,4.345c-2.335,1.943-4.905,3.747-7.508,5.7a.192.192,0,0,1-.068.029.233.233,0,0,1-.079,0,.2.2,0,0,1-.072-.022.139.139,0,0,1-.05-.043,4.637,4.637,0,0,1,.51-6.072,60.442,60.442,0,0,0,4.7-5.976,6.788,6.788,0,0,0,1.342-4.053v-.4a.756.756,0,0,1,.054-.718c.262-1.493,1.416-2.5,3.281-3.436a7.5,7.5,0,0,0,2.684-2.392,6.29,6.29,0,0,0,1.161-3.019c.141-1.876,1.691-2.981,3.6-3.986a.126.126,0,0,0,.072-.073.089.089,0,0,0-.021-.088.173.173,0,0,0-.1-.051.218.218,0,0,0-.123.015c-2.06.742-3.8,1.689-4.026,3.675-.349,3.014-2.382,5.235-6.71,6.7a.232.232,0,0,1-.093.009.2.2,0,0,1-.085-.028.124.124,0,0,1-.05-.057.087.087,0,0,1,0-.067c1.013-2.01,1.919-3.756,2.771-5.517a36.761,36.761,0,0,0,2.637-5.828,3.709,3.709,0,0,1,.836-1.645,5.46,5.46,0,0,1,1.667-1.284c.671-.349,1.389-.684,2.093-1.015l-.107-.081-.141-.1.49-.3-.04-.034c-2.744.9-5.012,2.158-5.824,4.684a35.081,35.081,0,0,1-3.093,6.465c-1.537,2.727-2.879,5.417-2.791,8.46.081,2.6-1.342,4.938-4.187,6.938a.184.184,0,0,1-.071.03.223.223,0,0,1-.082,0,.184.184,0,0,1-.072-.028.116.116,0,0,1-.043-.05c-.671-1.469-1.342-2.751-1.919-4.043a12.08,12.08,0,0,1-.456-9.6,5.959,5.959,0,0,1,3.066-3.326c4.147-2.168,6.6-5.086,5.589-8.881-.067-.239-.141-.479-.215-.708v.033l-.215-.12-.215-.124.329-.254c-.06-.191-.107-.388-.174-.579a1.577,1.577,0,0,1-.4-1.182c-.517-1.483-1.08-2.957-1.631-4.431a.1.1,0,0,0-.024-.042.151.151,0,0,0-.045-.033.2.2,0,0,0-.059-.018.229.229,0,0,0-.064,0,.206.206,0,0,0-.059.017.152.152,0,0,0-.046.032.1.1,0,0,0-.025.042.084.084,0,0,0,0,.046,23.673,23.673,0,0,0,1.4,5.149c1.6,3.885.436,7.211-3.758,9.828a11.005,11.005,0,0,0-4.361,4.307.142.142,0,0,1-.062.053.226.226,0,0,1-.185,0,.141.141,0,0,1-.062-.053c-.953-1.732-1.731-3.35-1.235-4.957a4.4,4.4,0,0,0-.013-2.986,4.753,4.753,0,0,1-.416-1.871l-.154.024v-.187h.195a9.071,9.071,0,0,1,.47-2.474c.98-3.158-.282-5.742-2.456-8.134l-.429.115-.174-.249-.1-.234.255-.038c-.543-.555-1.161-1.11-1.8-1.641a.2.2,0,0,0-.105-.035.22.22,0,0,0-.112.022.127.127,0,0,0-.065.069.089.089,0,0,0,.014.082C62.4,6.077,65.067,9.742,62.45,14.355a.151.151,0,0,1-.083.061.231.231,0,0,1-.119.006c-4.408-.9-6.039-2.364-6.227-5.536a6.974,6.974,0,0,0-1.469-4.1.147.147,0,0,0-.087-.064.224.224,0,0,0-.124,0,.15.15,0,0,0-.089.062.086.086,0,0,0,0,.089c.255.66.544,1.325.758,1.986l.228.053-.134.249a4.706,4.706,0,0,1,.188,1.455c-.141,3.2,2.114,5.01,5.871,6.268a2.609,2.609,0,0,1,.865.524,1.706,1.706,0,0,1,.477.735,32.344,32.344,0,0,1,.08,4.192,4.328,4.328,0,0,0,0,1.637,22.44,22.44,0,0,1,1.973,8.259,11.986,11.986,0,0,0,.141,3.187c.309,1.191.711,2.392,1.127,3.6.671,2.019-1.946,2.833-.832,5.8,1.5,3.967,0,8.134-.195,10.881a8.588,8.588,0,0,1-1.047,3.6.123.123,0,0,1-.058.059.215.215,0,0,1-.192,0,.123.123,0,0,1-.058-.059A8.788,8.788,0,0,1,62.4,53.7c-.168-2.723.047-5.455,0-8.187a4.191,4.191,0,0,0-.624-2.517c-1.537-1.991-1.094-3.957-.4-5.976.416-1.2.819-2.393,1.127-3.6.57-2.153-.289-7.23-.322-7.441-.812-2.392-2.523-3.876-4.757-5.264a8.946,8.946,0,0,1-5.1-6.378.121.121,0,0,0-.058-.069.222.222,0,0,0-.212,0,.121.121,0,0,0-.058.069c-.2,3.177,2.134,5.68,5.8,7.6a5.979,5.979,0,0,1,3.066,3.326c.067.182.134.359.188.536h.275v.187H61.1a12.2,12.2,0,0,1-.671,8.9c-.577,1.292-1.221,2.574-1.926,4.043a.117.117,0,0,1-.043.05.187.187,0,0,1-.072.028.223.223,0,0,1-.082,0,.183.183,0,0,1-.071-.03,10.024,10.024,0,0,1-3.134-3.15,7.008,7.008,0,0,1-1.053-3.788c.087-3.043-1.255-5.742-2.791-8.46a35.972,35.972,0,0,1-3.093-6.464c-.926-2.833-3.61-4.067-6.8-5.005a.222.222,0,0,0-.124-.007.159.159,0,0,0-.094.057.086.086,0,0,0-.01.088.137.137,0,0,0,.08.067c1.141.531,2.288,1.057,3.4,1.622a5.449,5.449,0,0,1,1.668,1.283,3.694,3.694,0,0,1,.835,1.645,38.83,38.83,0,0,0,2.637,5.828c.859,1.761,1.758,3.507,2.771,5.517a.084.084,0,0,1,.006.067.115.115,0,0,1-.048.058.2.2,0,0,1-.086.029.22.22,0,0,1-.093-.01c-4.388-1.469-6.4-3.689-6.75-6.7-.235-1.986-2.013-2.933-4.026-3.675a.218.218,0,0,0-.122-.014.169.169,0,0,0-.1.052.088.088,0,0,0-.019.087.127.127,0,0,0,.073.071c1.906,1,3.462,2.11,3.6,3.986a5.2,5.2,0,0,0,.342,1.488,2,2,0,0,1,.673.708,1.4,1.4,0,0,1,.165.847c.08.115.168.235.262.349l.389.086-.127.23a7.281,7.281,0,0,0,2.14,1.684c2.295,1.148,3.516,2.392,3.315,4.555a6.789,6.789,0,0,0,1.342,4.053,59.5,59.5,0,0,0,4.7,5.976,4.644,4.644,0,0,1,.5,6.072.139.139,0,0,1-.05.043.2.2,0,0,1-.072.022.232.232,0,0,1-.079,0,.19.19,0,0,1-.068-.029c-2.6-1.957-5.167-3.761-7.509-5.7-1.449-1.2-1.758-2.742-2.013-4.345-.181-1.23-1.342-2.392-2.013-3.584a10.81,10.81,0,0,1-.993-1.914c-.268-.785-.47-1.589-.778-2.392a.122.122,0,0,0-.068-.075.219.219,0,0,0-.123-.018.179.179,0,0,0-.105.049.091.091,0,0,0-.026.087c.127.881.248,1.761.376,2.646a.086.086,0,0,1-.01.053.122.122,0,0,1-.043.044.186.186,0,0,1-.066.026.225.225,0,0,1-.075,0c-8.052-1.2-9.508-5.67-10.736-10.283a9.77,9.77,0,0,0-.866-2.2.134.134,0,0,0-.079-.068.22.22,0,0,0-.123-.008.16.16,0,0,0-.1.056.086.086,0,0,0-.012.088q.5,1.522,1.02,3.034l-.785.344-1.261-.761a.214.214,0,0,0-.1-.024.218.218,0,0,0-.1.021.134.134,0,0,0-.063.058.087.087,0,0,0,0,.073.2.2,0,0,0,.1.11c2.255,1.182,2.885,3,3.825,4.728a7.944,7.944,0,0,0,2.354,2.718,11.79,11.79,0,0,0,3.685,1.818c3.355,1.053,5.764,2.66,6.415,5.264l.208.048-.1.182-.04.081a6.229,6.229,0,0,1,.094.746c.161,2.976,3.12,4.976,5.663,7.034A28.82,28.82,0,0,0,57.3,48.184c.114.067.215.134.315.2l.289-.11.087.139.087.134L57.9,48.6a2.505,2.505,0,0,1,.739.889,1.843,1.843,0,0,1,.174,1.025c-.134,1.866.174,3.747.188,5.618,0,1.689-.933,2.33-3.06,1.789-3.228-.823-6.234-1.813-7.589-4.512-1.261-2.5-2.758-4.876-2.684-7.622,0-1.488-1.074-2.708-2.738-3.766a47.084,47.084,0,0,1-6.616-4.933,12.667,12.667,0,0,1-2.268-3.445.128.128,0,0,0-.07-.067.216.216,0,0,0-.115-.015.178.178,0,0,0-.1.045.092.092,0,0,0-.03.081,4.029,4.029,0,0,0,1.429,3.163,63.854,63.854,0,0,0,7.381,5.919c2.013,1.292,1.9,2.656,1.771,4.4a.1.1,0,0,1-.035.063.178.178,0,0,1-.077.039.232.232,0,0,1-.095,0,.191.191,0,0,1-.082-.034,52.9,52.9,0,0,1-11.682-11.6C29.933,32.2,27.437,28.8,24.8,25.446A7.02,7.02,0,0,1,23.519,19a.929.929,0,0,0,.04-.56.117.117,0,0,0-.056-.066.214.214,0,0,0-.2,0,.116.116,0,0,0-.056.066c-.168.388-.356.775-.51,1.163l.349-.076.06.249-.517.043-.04.105a.874.874,0,0,1-.121.479.387.387,0,0,1-.04.211A9.137,9.137,0,0,0,22.8,23.13a.091.091,0,0,1-.018.066.15.15,0,0,1-.064.049.225.225,0,0,1-.091.017.217.217,0,0,1-.089-.021L19.593,21.6h-.1c5.026,3.2,7.7,7.407,10.3,11.632a1.157,1.157,0,0,1,.477.421.743.743,0,0,1,.1.536l.04.057.369.057-.074.177-.181-.043c.382.617.765,1.23,1.161,1.842,2.623,4.067,6.395,7.57,10.065,11.158,1.7,1.66,2.684,3.694,3.972,5.57a.089.089,0,0,1,.011.081.127.127,0,0,1-.065.067l-.611.3a.222.222,0,0,1-.215,0c-3.925-3.225-8.052-6.34-11.689-9.723-2.5-2.321-4.529-4.723-8.394-6.22-1.241-.479-2.469-.919-3.724-1.3l.195.445h-.067a10.919,10.919,0,0,1,2.308,1.125c1.027.665,2.369,1.077,3.516,1.656a4.847,4.847,0,0,1,1.161.828.1.1,0,0,1,.041.068.09.09,0,0,1-.025.071.162.162,0,0,1-.081.046.223.223,0,0,1-.1,0c-4.147-.77-8.562-.478-12.434-2.306S7.24,36.045,2.718,36.6c1.525-.055,3.053-.045,4.576.029,1.516.185,3.013.441,4.482.766a7.526,7.526,0,0,1,1.443.364,41.9,41.9,0,0,0,12.366,3.163,9.18,9.18,0,0,1,6.093,3.23A83.581,83.581,0,0,0,38.7,50.318c1.087.957,2.134,1.914,3.429,3.091a.1.1,0,0,1,.038.072.1.1,0,0,1-.034.073.178.178,0,0,1-.091.041.219.219,0,0,1-.107-.009c-1.261-.411-2.254-.718-3.214-1.072-3.878-1.436-7.871-2.326-12.3-1.507a2.672,2.672,0,0,1-.786,0,2.346,2.346,0,0,1-.717-.23,25.717,25.717,0,0,1-4.375-2.794,8.654,8.654,0,0,0-4.737-2.23l-.47.2-.215-.3a15.331,15.331,0,0,0-3.67.163l-4.932.761a.187.187,0,0,0-.109.042.094.094,0,0,0-.035.085.112.112,0,0,0,.059.078.21.21,0,0,0,.119.025h2.59c2.281-.1,4.57-.407,6.824-.3a6.5,6.5,0,0,1,3.207,1.321c.5.359.973.737,1.443,1.125a1.892,1.892,0,0,1,.741.372,1.154,1.154,0,0,1,.386.585c.121.105.248.22.376.325.711.617,1.443,1.254,2.234,1.914a.087.087,0,0,1,0,.115c-.859,1.593-2.758,2.105-6.784,1.349a.223.223,0,0,0-.119,0,.147.147,0,0,0-.084.06.085.085,0,0,0,0,.085.14.14,0,0,0,.08.063c2.3,1.053,5.368.957,6.878-.584,2.228-2.215,5.321-2.22,8.052-1.483,4.885,1.321,9.5,3.144,14.2,4.785a.157.157,0,0,1,.064.044.091.091,0,0,1,0,.123.157.157,0,0,1-.064.044c-2.825,1.038-5.254,2-7.784,2.8a34.032,34.032,0,0,1-4.751.924c-1.365.234-2.75.4-4.147.5-.812.048-1.63.048-2.456.076a.188.188,0,0,0-.1.042.095.095,0,0,0,0,.151.188.188,0,0,0,.1.042,23.649,23.649,0,0,0,2.469.038,47.8,47.8,0,0,0,5.932-.584c1.778-.311,3.436-.957,5.194-1.344,2.369-.507,4.771-.957,7.186-1.321a3.852,3.852,0,0,1,1.57.378A16.813,16.813,0,0,0,53.036,59.6c2.845.359,3.751,1.785,4.7,3.469.886,1.847.362,3.694.852,5.445a14.231,14.231,0,0,0,4.938.5" transform="translate(1.073)" fill="#fff"/>
    <path id="Path_195" data-name="Path 195" d="M61.633,12.847l.4-.191-.094-.057Z" transform="translate(24.329)" fill="#fff"/>
    <path id="Path_196" data-name="Path 196" d="M55.038,49.185l.517.124.436-.053-.463.34.671-.364h.06l-.671-.239.879.211.416-.048-.731.536,1.087-.574-1.02-.378,1.409.335.389-.043-.966.732,1.5-.794-1.4-.526,1.939.478.416-.043.671-.077v-.1l-.423.072c-.188-.56-1.04-.919-2.476-.756a6.631,6.631,0,0,0-2.919,1.435l1.053-.12Z" transform="translate(21.455)" fill="#fff"/>
    <path id="Path_197" data-name="Path 197" d="M54.763,49.543l.4-.211-.128.014Z" transform="translate(21.617)" fill="#fff"/>
    <path id="Path_198" data-name="Path 198" d="M60.153,48.687v.1l-.671.077-.416.043-1.939-.478,1.4.526-1.49.813,1.007-.737-.389.043-1.409-.335,1.02.378-1.087.574.731-.536L56.5,49.2l-.879-.211.671.239h-.06l-.671.364.463-.34-.436.053-.517-.124.369.139-1.053.12a7.722,7.722,0,0,0,3.4.723c1.5-.172,2.093-.694,2.013-1.263l.429-.029Zm-5.24.856.275-.2h.127Z" transform="translate(21.467)" fill="#fff"/>
    <path id="Path_199" data-name="Path 199" d="M80.008,30.9v.526l-.054.072.557-.211-.671.349-.282.416-.188-.675.047.89-.04.057.939-.354-1.033.569-.262.4-.3-1.081.074,1.435,1.5-.565-1.745.957-.248.378-.416-1.488.107,1.957,2.06-.78-2.4,1.3-.268.4-.4.641.174.057.215-.4a2.566,2.566,0,0,0,.919.081,2.926,2.926,0,0,0,.805-.206,3.6,3.6,0,0,0,1.624-1.4c.953-1.436,0-3.728,0-3.728l-.544.813Z" transform="translate(30.385)" fill="#fff"/>
    <path id="Path_200" data-name="Path 200" d="M77.211,36.088l.423-.641.268-.4,2.4-1.3-2.06.78-.107-1.957.416,1.488.248-.378,1.745-.957-1.5.565-.074-1.436.3,1.081.262-.4,1.094-.589-.94.354.04-.057-.047-.89.188.675.282-.416.671-.349-.557.211.054-.072v-.526l.114.4.544-.814s-3.107.909-4.06,2.345-.564,2.393.463,2.814l-.309.388.329.11Z" transform="translate(30.149)" fill="#fff"/>
    <path id="Path_201" data-name="Path 201" d="M77.611,21.723l-.054.306h.134v-.78l1.027-1.263-1,.876-.8-1.2.819.852v-.282l.745-.919-.725.636-.5-.885.59.617v-.3l.463-.574-.456.4v-.043l-.362-.545.369.388V18.69l.275-.34-.268.234v-.053l-.208-.325.215.23.04-.612s-1.61,1.153-1.671,2.235A1.42,1.42,0,0,0,77.611,21.723Z" transform="translate(30.097)" fill="#fff"/>
    <path id="Path_202" data-name="Path 202" d="M77.478,18.206l.208.325v.053l.268-.234-.275.34v.316l-.369-.388.362.545v.043l.456-.4-.463.574v.3l-.617-.617.577.876.725-.636-.745.919V20.5l-.819-.852.8,1.2,1-.876L77.559,21.24v.78h.134v-.306a1.515,1.515,0,0,0,1.53-1.579c.06-1.034-1.5-2.311-1.5-2.311v.612Z" transform="translate(30.311)" fill="#fff"/>
    <path id="Path_203" data-name="Path 203" d="M68.429,26.111l.59.258v-.043l.087.105.06-.416.047.541.45.531-.134-.153-.845-.249,1.006.44.047.053.1-.713.074.919.3.359-1.342-.4,1.6.7-.208-.249.228.268.154-1.134.127,1.469.282.34L69.2,28.193l2.214.957.221-1.569.168,2.029.3.359.49.574.154-.072-.342-.349c.906-.479,1.114-1.435.074-2.67s-4.133-1.914-4.133-1.914l.617.732Z" transform="translate(26.98)" fill="#fff"/>
    <path id="Path_204" data-name="Path 204" d="M72.62,30.552l-.49-.574-.3-.359L71.66,27.59l-.221,1.569L69.225,28.2l1.859.545-.282-.34-.127-1.469-.154,1.134-.228-.268.208.249-1.6-.7,1.342.4-.3-.359-.074-.919-.1.713-.047-.053-1.006-.44.845.249.134.153-.45-.531-.047-.541-.06.416-.094-.125v.043l-.591-.258.5.144-.577-.723s-.624,2.22.463,3.512a3.036,3.036,0,0,0,3.355,1.211l.268.373.309-.134Z" transform="translate(26.916)" fill="#fff"/>
    <path id="Path_205" data-name="Path 205" d="M27.854,23.58l.9-.072.134.038-.409-.479.671.531.745.2-1.147.235,1.51-.11.107.029-.671-.79,1.114.9.711.2-1.832.368,2.436-.2h.04l-1.114-1.258,1.778,1.435.879.239-.208-.057-2.57.517,3.355-.278-1.537-1.737L35.2,25.279l.718.2,1.141.311.087-.158-.389-.086-.349-.077a1.244,1.244,0,0,0,.015-1,1.79,1.79,0,0,0-.766-.832,6.789,6.789,0,0,0-2.187-.957c-2.57-.7-6.428.373-6.428.373l1.456.4Z" transform="translate(10.674)" fill="#fff"/>
    <path id="Path_206" data-name="Path 206" d="M37.092,25.791l-1.141-.311-.718-.2L32.777,23.3l1.537,1.737-3.355.278,2.523-.507.208.057-.879-.239-1.778-1.435,1.114,1.258h-.04l-2.436.2,1.832-.368-.711-.2-1.121-.924.671.789-.087-.024-1.53.129,1.147-.235-.745-.2-.671-.531.409.479-.134-.038-.9.072.671-.134-1.456-.4a9.45,9.45,0,0,0,4.429,3.349c2.463.675,4.18.268,4.8-.675l.671.234L37,25.886l.127-.23Z" transform="translate(10.676)" fill="#fff"/>
    <path id="Path_207" data-name="Path 207" d="M60.615,36.677l.671-.105h-.047l.148.029-.349-.316.537.354.57.105-.812.235,1.1-.182h.08l-.6-.541.886.589.544.1-1.3.373,1.765-.282-.282-.053.309.057-.946-.837,1.456.957.517.1-1.792.512,2.429-.392-1.342-1.182L66.171,37.5l.544.105.866.163.047-.124-.564-.077c.195-.746-.577-1.517-2.449-1.871a11.264,11.264,0,0,0-4.65.636l1.107.211Z" transform="translate(23.67)" fill="#fff"/>
    <path id="Path_208" data-name="Path 208" d="M67.584,37.8v-.043l-.866-.163-.544-.105-2.013-1.311L65.5,37.361l-2.429.392,1.792-.512-.517-.1-1.456-.957.953.856-.309-.057.282.053-1.765.282,1.3-.373-.544-.1-.913-.6.6.541h-.08l-1.1.182.812-.235-.57-.105-.537-.354.349.316-.148-.029h.047l-.671.105.476-.134-1.107-.211a7.707,7.707,0,0,0,3.6,2.192c1.953.368,3.073-.043,3.429-.766l.49.12h.047Z" transform="translate(23.672)" fill="#fff"/>
    <path id="Path_209" data-name="Path 209" d="M38.04,9.876l-.671.172-.4.306.094-.617-.315.79-.054.043.946-.124-1.168.3-.382.292.154-.986-.483,1.239.141-.11-.161.124,1.523-.215-1.865.479-.819.6.429-.33.242-1.368-.671,1.713,2.08-.273-2.57.651-.382.292-.611.479.141.072.362-.321c.832.479,2.147.359,3.469-.656A4.806,4.806,0,0,0,38.476,9.2l-.973.742Z" transform="translate(13.064)" fill="#fff"/>
    <path id="Path_210" data-name="Path 210" d="M36.468,9.436l-.174.459.121-.091Z" transform="translate(14.327)" fill="#fff"/>
    <path id="Path_211" data-name="Path 211" d="M33.294,13.4l-.127-.086.611-.478.383-.292,2.57-.651-2.08.273.671-1.713-.215,1.368-.429.33.792-.608,1.865-.478-1.51.2.161-.124-.141.11.456-1.2-.154.957.382-.292,1.168-.3-.946.124L36.8,10.5l.3-.775-.094.617.4-.306.671-.172-.557.072.973-.742s-3.026.172-4.408,1.23-1.4,1.952-.671,2.512L33,13.216Zm4.516-3.967-.054.368-.121.091Z" transform="translate(13.005)" fill="#fff"/>
    <path id="Path_212" data-name="Path 212" d="M28.925,55.314c-2.905-.809-7.28.392-7.28.392l1.651.478-.772.153,1.02-.081.148.043-.456-.526.738.6.845.235-1.3.254,1.731-.134.121.034-.785-.895,1.255,1.024.805.225-2.08.407,2.765-.215h.04l-1.255-1.435,2.013,1.641,1.342.383-.611-.172-2.865.565,3.811-.3-1.731-1.971,2.771,2.263.805.225.067-.129-.06.12,1.288.359.1-.182-.832-.187C32.709,57.362,31.716,56.089,28.925,55.314Z" transform="translate(8.544)" fill="#fff"/>
    <path id="Path_213" data-name="Path 213" d="M31.674,58.5l.04-.12-.06.12-.805-.225-2.771-2.263,1.731,1.971-3.811.3,2.865-.565.611.172-1.342-.383-2.013-1.641L27.373,57.3h-.04l-2.765.215,2.08-.407-.805-.225L24.588,55.86l.785.895-.121-.033-1.731.134,1.3-.254-.845-.234-.738-.6.456.526-.148-.043-1.02.081.772-.153L21.649,55.7s2.08,3,4.985,3.828c2.785.775,4.7.321,5.449-.742l.785.268.1-.182Z" transform="translate(8.546)" fill="#fff"/>
    <path id="Path_214" data-name="Path 214" d="M28.106,35.806l1.013-.081.154.043-.429-.526.738.6.845.234-1.3.258,1.731-.139.121.033-.792-.895,1.228,1.029,1.53.421L31.7,35.351l2.013,1.636.758.211-2.872.574,3.811-.3-1.724-1.976,2.765,2.263.805.225,1.288.359.1-.182-.208-.048-.624-.139c.483-1.125-.523-2.393-3.308-3.172-2.906-.809-7.28.392-7.28.392l1.651.479Z" transform="translate(10.745)" fill="#fff"/>
    <path id="Path_215" data-name="Path 215" d="M31.394,36.585l-2.08.407,2.765-.215Z" transform="translate(11.571)" fill="#fff"/>
    <path id="Path_216" data-name="Path 216" d="M37.259,37.987l-.805-.225L33.69,35.5l1.724,1.976-3.811.3,2.865-.565L33.71,37,31.7,35.365,32.945,36.8l-1.523-.435-1.228-1.029.785.895-.114-.034-1.731.139,1.3-.258-.845-.235-.738-.6.463.526-.154-.043-1.013.081.7-.153L27.2,35.174s2.08,3,4.985,3.828c2.785.775,4.7.321,5.449-.742l.785.268.06-.1.04-.081Zm-5.053-1.4.671.191-2.765.215Z" transform="translate(10.737)" fill="#fff"/>
    <path id="Path_217" data-name="Path 217" d="M54.32,11.3a2.142,2.142,0,0,0,.443.378l-.268.2-.329.254.215.124.872-.77.537-.479,3.858-1.2-3.154.579.751-2.68-.114,2.115.51-.478,2.8-.866L58.151,8.9V8.871l.544-1.943-.081,1.536-.369.325.906-.8,1.758-.545L59.473,7.7l.081-.072.335-1.22-.047.957.57-.507,1.027-.321L60.6,6.7l.094-.091.2-.713v.565l-.094.081L62,5.479s-4.637.507-6.589,2.239a3.807,3.807,0,0,0-1.49,2.369A1.573,1.573,0,0,0,54.32,11.3Z" transform="translate(21.282)" fill="#fff"/>
    <path id="Path_218" data-name="Path 218" d="M60.764,6.493V5.928l-.2.713-.094.091.839-.158-1.027.321-.57.507.047-.957-.335,1.22-.081.072,1.436-.263-1.758.545-.906.8.369-.325.081-1.536L58.019,8.9v.029l2.288-.421-2.8.866L57,9.857l.114-2.115-.751,2.68,3.154-.579-3.858,1.163-.537.478-.872.77.215.12V12.34l.463-.479c1.342.665,3.355.368,5.241-1.292C62.126,8.838,61.837,5.5,61.837,5.5l-1.2,1.062Z" transform="translate(21.414)" fill="#fff"/>
    <path id="Path_219" data-name="Path 219" d="M54.643,31.7a.734.734,0,0,0,.282.287l-.215.182.161.086-.08-.043.309-.3.188-.182,1.423-.479-1.174.254.221-1.01v.794l.181-.177,1.027-.359-.845.187.161-.737v.579l.188-.187.671-.225-.53.115v-.029l.1-.478v.364l.248-.2.376-.134-.309.067.034-.034.06-.268v.211l.4-.378a5.564,5.564,0,0,0-2.422.914,2.217,2.217,0,0,0-.376.479A.757.757,0,0,0,54.643,31.7Z" transform="translate(21.549)" fill="#fff"/>
    <path id="Path_220" data-name="Path 220" d="M57.029,29.767l-.06.268-.034.033L57.244,30l-.356.144-.2.2v-.364l-.1.479v.029l.53-.115-.671.225-.188.187v-.608l-.161.737.845-.187-1.027.359-.181.177v-.785l-.221,1.01,1.174-.254-1.422.479-.188.182-.309.3.08.043.181-.2a1.772,1.772,0,0,0,1.926-.541,2.624,2.624,0,0,0,.517-1.914l-.4.378Z" transform="translate(21.619)" fill="#fff"/>
    <path id="Path_221" data-name="Path 221" d="M41.932,16.977l-.1.459.1-.1Z" transform="translate(16.512)" fill="#fff"/>
    <path id="Path_222" data-name="Path 222" d="M42.18,16.776l-.06.268.06-.057Z" transform="translate(16.626)" fill="#fff"/>
    <path id="Path_223" data-name="Path 223" d="M40.876,18.92l.195-.182,1.416-.479-1.168.254.221-1.01v.775l-.208.2.389-.378,1.033-.359-.852.187.161-.737v.579l-.141.139.336-.325.671-.225-.537.115.335-.321.383-.134-.315.067.49-.479a5.519,5.519,0,0,0-2.416.914c-.691.67-.624,1.187-.154,1.474l-.215.182.081.043Zm2.013-2.144v.211l-.06.057Zm-.362.2v.364l-.1.1Z" transform="translate(15.93)" fill="#fff"/>
    <path id="Path_224" data-name="Path 224" d="M40.6,19.264l.174-.2a1.783,1.783,0,0,0,1.932-.541,2.607,2.607,0,0,0,.51-1.914l-.49.479.315-.067-.382.134-.336.321.537-.115-.671.225-.335.325.141-.139v-.588l-.161.737.852-.187-1.033.359-.389.378.208-.2v-.785l-.221,1.01,1.168-.254L41,18.719l-.195.182-.309.3Z" transform="translate(15.986)" fill="#fff"/>
    <path id="Path_225" data-name="Path 225" d="M37.54,51.036l.832-.756-.329.105Z" transform="translate(14.818)" fill="#fff"/>
    <path id="Path_226" data-name="Path 226" d="M37.131,51.137l.49-.44.114-.038-.671-.105.866.038L39,50.242l-1.114-.177,1.476.062.6-.191-.812,1.038,1.342-1.206-.4.129.429-.139-1.792-.273,2.355.1,1.3-.416-2.463-.364,3.248.139.611-.2.98-.311-.087-.139-.289.11-.309.115c-.611-.8-2.134-1.1-4.247-.421a8.2,8.2,0,0,0-3.644,3.077l1.248-.4Z" transform="translate(14.281)" fill="#fff"/>
    <path id="Path_227" data-name="Path 227" d="M39.306,50.83l1.839-1.656-.718.225Z" transform="translate(15.515)" fill="#fff"/>
    <path id="Path_228" data-name="Path 228" d="M44.765,48.414l-.98.311-.611.2-3.261-.115,2.463.388-1.3.416-2.355-.124,1.785.282-.429.139.4-.129-1.342,1.206.812-1.038-.6.191-1.476-.062,1.114.177-1.053.34-.866-.038.671.105-.114.038-.49.44.3-.383-1.248.4s3.449.809,5.643.1,2.818-1.684,2.382-2.541l.456-.12.181-.048Zm-6.71,2.622.51-.651.329-.105Zm2.469-.206L41.645,49.4l.718-.23Z" transform="translate(14.283)" fill="#fff"/>
    <path id="Path_229" data-name="Path 229" d="M32.719,4.455l1.067-.086.154.048-.483-.555.778.632.886.249-1.342.268L35.6,4.866l.127.033L34.9,3.943l1.342,1.077.839.234-2.174.426,2.865-.206-.148-.043.188.053-1.342-1.5L38.57,5.7l.792.22-3,.589L40.389,6.2,38.577,4.139l2.9,2.364.845.234,1.342.378.107-.191-.228-.053-.671-.139c.5-1.182-.543-2.512-3.462-3.326-3.026-.847-7.609.421-7.609.421l1.724.478Z" transform="translate(12.553)" fill="#fff"/>
    <path id="Path_230" data-name="Path 230" d="M43.65,7.115l-1.342-.378L41.462,6.5,38.557,4.139,40.369,6.22l-4.026.311,3-.589-.792-.22L36.483,3.986l1.342,1.5-.188-.053.148.043-2.9.225,2.141-.435-.839-.234L34.846,3.952l.825.957-.127-.033-1.818.144,1.342-.268L34.182,4.5l-.725-.641.483.555-.154-.048-1.067.086.805-.148L31.8,3.828s2.174,3.139,5.22,3.986c2.912.809,4.952.335,5.7-.775l.825.278.074-.134.134-.249Z" transform="translate(12.553)" fill="#fff"/>
    <path id="Path_231" data-name="Path 231" d="M57.658,1.124l-.926.636-.195.043,1.027.268-1.389-.2-1.2.254h.107l1.02-.957L54.524,2.258l-.154.033,1.751.478L53.76,2.392l-1.033.215L54.35,1.062,51.834,2.794H51.78l2.791.732L50.807,3l-.986.206,2.241-2.129L48.6,3.469l3.852,1.01-5.2-.723-1.04.22-1.671.33.1.239.429-.115.6-.124c.731,1.378,3.107,2.1,6.71,1.34,3.758-.794,6.811-4.388,6.811-4.388l-2.134.45Z" transform="translate(17.582)" fill="#fff"/>
    <path id="Path_232" data-name="Path 232" d="M44.574,4.306l1.671-.349,1.04-.22,5.194.727-3.852-.99,3.462-2.392L49.848,3.211,50.834,3l3.764.526L51.807,2.8h.054l2.516-1.732L52.753,2.613l1.04-.22,2.362.33L54.4,2.244l.154-.033,1.577-1.086-1.02.957h-.107l1.2-.254,1.389.2-1.027-.268.195-.043.926-.636-.6.569,2.134-.45S53.921-.641,50.163.148c-3.61.809-5.053,2.33-4.637,3.775l-.819.129-.255.038Z" transform="translate(17.547)" fill="#fff"/>
    <path id="Path_233" data-name="Path 233" d="M77.824,44.361l-1.013.411-.671.737.154-.172-.1-1-.161,1.282-.074.081,1.443-.388-1.724.7-.926,1.019,2.328-.627-2.751,1.115-.463.512-.208-2.2-.362,2.828,3.187-.823-3.8,1.541-.483.536-.778.866.235.11.107-.139.329-.431c1.51.579,3.53.12,5.214-1.742,1.745-1.943.939-5.364.939-5.364L77.012,44.6Z" transform="translate(28.193)" fill="#fff"/>
    <path id="Path_234" data-name="Path 234" d="M75.577,43.734l-.094.751.154-.167Z" transform="translate(29.796)" fill="#fff"/>
    <path id="Path_235" data-name="Path 235" d="M74.109,44.964l-.262,2.048.416-.454Z" transform="translate(29.15)" fill="#fff"/>
    <path id="Path_236" data-name="Path 236" d="M72.415,49.916l.483-.536,3.811-1.531-3.174.847.362-2.828.208,2.2.463-.512,2.751-1.115-2.3.613.926-1.019,1.724-.7-1.443.388.074-.081.161-1.282.1,1-.154.172.671-.737,1.013-.411-.845.225,1.235-1.368s-4.7.89-6.455,2.833c-1.677,1.861-1.436,3.349-.067,4.105l-.544.517.107.048.134.062Zm4.965-6.182.06.584-.154.172Zm-2.087,1.244.154,1.593-.416.479Z" transform="translate(27.967)" fill="#fff"/>
    <path id="Path_237" data-name="Path 237" d="M71.906,54.653l-.825.7.315-.091Z" transform="translate(28.058)" fill="#fff"/>
    <path id="Path_238" data-name="Path 238" d="M69.938,54.84,67.7,56.759l.852-.254Z" transform="translate(26.725)" fill="#fff"/>
    <path id="Path_239" data-name="Path 239" d="M68.552,55.046l-3.08,2.641,1.174-.354Z" transform="translate(25.844)" fill="#fff"/>
    <path id="Path_240" data-name="Path 240" d="M64.308,58.376l1.007-.3,5.261.3L66.6,57.668l2.127-.632,3.825.235-2.885-.517,1.906-.565,2.4.148-1.805-.325.148-.043,1.4-1.2-.866,1.043-.429.124,1.516-.431,1.4.086-1.06-.187,2.55-.761s-5.549-1.435-9.166-.34c-3.469,1.029-4.7,2.651-4.026,4.058l-1.04.249.127.225Zm10.964-3.723-.51.613-.315.091Zm-3.3.191-1.4,1.66-.852.254Zm-2.268.2L67.8,57.333l-1.174.354Z" transform="translate(24.707)" fill="#fff"/>
    <path id="Path_241" data-name="Path 241" d="M63.051,58.988l.731-.263a2.782,2.782,0,0,0,1.02.842,5.343,5.343,0,0,0,2.181.507,11.548,11.548,0,0,0,3.677-.536c3.617-1.077,6.106-4.885,6.106-4.885l-2.55.761,1.06.187-1.376-.1-1.483.44.429-.125.866-1.043-1.429,1.206-.148.043,1.805.325-2.4-.148-1.906.565,2.885.517L68.7,57.051l-2.127.632,3.972.694-5.267-.325-1.007.3-1.61.479.121.215Z" transform="translate(24.735)" fill="#fff"/>
    <path id="Path_242" data-name="Path 242" d="M64.985,8.934l-.4.871.248-.167Z" transform="translate(25.493)" fill="#fff"/>
    <path id="Path_243" data-name="Path 243" d="M67,8.613l-.235.512.1-.072-.181.129.631-.057-.792.167-.792.55,1.08-.105-1.342.287-.866.6,1.724-.163-2.154.478-.966.67,2.382-.225-2.972.632-.456.316-.731.507.107.081.034.024.121-.091.309-.249.094.057c.919.507,2.375.388,3.9-.67a5.422,5.422,0,0,0,1.859-3.6l-.939.646Z" transform="translate(24.251)" fill="#fff"/>
    <path id="Path_244" data-name="Path 244" d="M64.378,9.235l-.638,1.388.383-.273Z" transform="translate(25.161)" fill="#fff"/>
    <path id="Path_245" data-name="Path 245" d="M63.605,9.689,62.72,11.6l.537-.373Z" transform="translate(24.758)" fill="#fff"/>
    <path id="Path_246" data-name="Path 246" d="M61.346,12.733l.141.1.731-.507.456-.316,2.972-.632-2.382.225.966-.67,2.154-.479-1.724.163.866-.569,1.342-.287-1.08.105.792-.55.792-.167-.631.057.181-.129-.1.072.221-.536-.094.411.939-.646s-3.456.077-5.1,1.22-1.745,2.125-1.013,2.794l.04.034Zm4.918-3.8-.154.7-.248.172Zm-.939.3-.248,1.115-.389.273Zm-1.174.455L63.8,11.23l-.537.373Z" transform="translate(24.213)" fill="#fff"/>
    <path id="Path_247" data-name="Path 247" d="M41.265,25.838l.49.163h.718l-.584-.287.825.282h.416l-.805.478L43.486,26l-.939-.479,1.342.45h.389l-1.107.6,1.6-.651-1.288-.636,1.825.622h1.08v-.1h-.423c-.094-.56-.866-.986-2.3-.957a7.067,7.067,0,0,0-3.107,1.168l1.06-.029Z" transform="translate(16.011)" fill="#fff"/>
    <path id="Path_248" data-name="Path 248" d="M41.874,25.982l-.51.287.731-.3Z" transform="translate(16.328)" fill="#fff"/>
    <path id="Path_249" data-name="Path 249" d="M40.955,26.174,41.378,26l-.127,0Z" transform="translate(16.166)" fill="#fff"/>
    <path id="Path_250" data-name="Path 250" d="M46.393,25.872h-1.08l-1.825-.622,1.288.636-1.6.68,1.114-.641H43.9l-1.342-.45.939.479-1.161.479.805-.479h-.416l-.825-.282.584.287h-.718l-.5-.12.349.168-1.06.029a7.174,7.174,0,0,0,3.221,1c1.5-.043,2.161-.479,2.194-1.067h.423Zm-5.274.3.3-.172h.127Zm1.08-.191h.221l-.725.287Z" transform="translate(16.009)" fill="#fff"/>
    <path id="Path_251" data-name="Path 251" d="M49.815,17.7l-.3.167.423-.172h.08l-.342-.167.483.167H50.6l-.5.292.725-.3h.06L50.3,17.4l.819.3H51.9l-.933-.479,1.342.45h.879L51.9,17.044l1.825.617h1.087v-.1l-.423.034c-.087-.56-.866-.986-2.3-.957a7.041,7.041,0,0,0-3.1,1.163Z" transform="translate(19.338)" fill="#fff"/>
    <path id="Path_252" data-name="Path 252" d="M51.045,17.676l-.805.464,1.161-.474Z" transform="translate(19.832)" fill="#fff"/>
    <path id="Path_253" data-name="Path 253" d="M50.847,18.283l1.6-.651-.49.014Z" transform="translate(20.071)" fill="#fff"/>
    <path id="Path_254" data-name="Path 254" d="M54.146,17.608H53.73L51.9,16.991l1.288.632h-.879l-1.342-.45.933.479-.778.053-.832-.282.584.292h-.06l-.725.3.5-.292H50.16l-.483-.167.342.167h-.08l-.423.172.3-.167h-.845a7.178,7.178,0,0,0,3.214,1c1.5-.038,2.161-.5,2.194-1.067H54.8v-.1Zm-2.6.067H51.9l-1.161.478Zm.04.608,1.114-.636h.49Z" transform="translate(19.329)" fill="#fff"/>
    <path id="Path_255" data-name="Path 255" d="M51.41,14.393l-.4.21h-.074l.369.134-.51-.12-.429.048.45-.33-.671.354h-.06l.631.234-.872-.21-.476.057h.067l.758-.522-1.107.584,1.006.373-1.389-.33-.389.043,1-.727-1.483.78,1.389.522L47.3,15.015l-.409.043-.671.076v.091l.154-.024.262-.043c.181.55,1.027.9,2.442.746a6.5,6.5,0,0,0,2.885-1.435l-.839.1Z" transform="translate(18.246)" fill="#fff"/>
    <path id="Path_256" data-name="Path 256" d="M46.228,15.144l.671-.077.409-.043,1.919.479-1.389-.522,1.483-.78-1,.727.389-.043,1.389.33-1.006-.373,1.074-.569-.725.531h-.067l.476-.057.872.211-.631-.234h.06l.671-.354-.45.33.429-.048.51.12-.369-.134h.074l.4-.211-.268.2.839-.1a7.623,7.623,0,0,0-3.355-.718c-1.476.167-2.067.684-2.013,1.249h-.423Z" transform="translate(18.235)" fill="#fff"/>
    <path id="Path_257" data-name="Path 257" d="M68.132,21.9l-.356.172.08.072.523-.292.329-.182,2.013-.263-1.563.029.711-1.2-.376.981.329-.182,1.443-.191H70.132l.067-.038-.054.029.557-.866-.275.713.322-.182.906-.12H70.99l.349-.545-.174.445.342-.191.537-.067h-.423l.06-.034.208-.32-.1.263.671-.373a8.044,8.044,0,0,0-3.422.536,3.47,3.47,0,0,0-.671.478,2.245,2.245,0,0,0-.215.23,1.076,1.076,0,0,0-.228.479A.7.7,0,0,0,68.132,21.9Z" transform="translate(26.754)" fill="#fff"/>
    <path id="Path_258" data-name="Path 258" d="M71.874,19.69l-.208.321-.06.034h.423l-.537.067-.342.191.174-.445-.349.545h.664l-.906.12-.322.182.275-.713-.557.866.054-.029-.067.038H71.25l-1.443.191-.329.182.382-1-.758,1.2,1.564-.029-2.013.263-.329.182-.523.292.08.077.248-.158.067-.048a2.475,2.475,0,0,0,2.65-.191A3.993,3.993,0,0,0,72.4,19.58l-.671.373Z" transform="translate(26.763)" fill="#fff"/>
    <path id="Path_259" data-name="Path 259" d="M62.488,20.6l-.4.526.181-.091Z" transform="translate(24.507)" fill="#fff"/>
    <path id="Path_260" data-name="Path 260" d="M63.973,20.47l-.228.306.06-.029-.128.062h.416l-.537.043-.6.287h.711l-.913.072-.564.273.221-.11.342-.694-.631.837,1.134.038-1.456.115-.322.158.47-.957-.879,1.153,1.564.053-2.013.163-.342.168-.55.263.074.081.336-.187c.49.44,1.463.507,2.65-.062a4.315,4.315,0,0,0,1.771-2.158l-.671.335Z" transform="translate(23.579)" fill="#fff"/>
    <path id="Path_261" data-name="Path 261" d="M59.818,22.8l-.074-.081.55-.263.342-.167,2.013-.163-1.563-.053.879-1.153-.47.957.322-.158,1.456-.115-1.134-.038.631-.837-.342.694-.221.11.564-.273.913-.072h-.711l.6-.287.537-.043h-.416l.127-.062-.06.029.228-.306-.121.254.671-.335a8.136,8.136,0,0,0-3.469.364c-1.241.6-1.416,1.215-1.027,1.694l-.369.153ZM63.434,20.6l-.208.435-.188.086Z" transform="translate(23.554)" fill="#fff"/>
    <path id="Path_262" data-name="Path 262" d="M46.036,9.383a8.55,8.55,0,0,0-3.5-.091l.933.349-.181-.268.309.316.671.239-.309-.478.523.541.671.258-.49-.727.839.856.778.292-.671-1,1.154,1.182.362.139.59.22.06-.086-.4-.115C47.686,10.527,47.311,9.857,46.036,9.383Z" transform="translate(16.789)" fill="#fff"/>
    <path id="Path_263" data-name="Path 263" d="M43.754,9.833l-.644.077h.839Z" transform="translate(17.017)" fill="#fff"/>
    <path id="Path_264" data-name="Path 264" d="M43.178,9.575l-.376.043h.49Z" transform="translate(16.896)" fill="#fff"/>
    <path id="Path_265" data-name="Path 265" d="M44.459,10.144l-1.027.12h1.342Z" transform="translate(17.144)" fill="#fff"/>
    <path id="Path_266" data-name="Path 266" d="M43.89,10.689h1.845l-.436-.163Z" transform="translate(17.325)" fill="#fff"/>
    <path id="Path_267" data-name="Path 267" d="M47.108,11.005l-.362-.139L45.611,9.685l.671,1L45.5,10.4l-.839-.857.49.727-.671-.258-.523-.541.309.478L43.6,9.709l-.309-.316.181.268-.933-.349a4.583,4.583,0,0,0,2.093,2c1.322.493,2.234.33,2.684-.148l.362.158.121-.168-.06.086ZM43.283,9.57l.114.043h-.47Zm.671.258.195.077h-.812Zm-.195.431,1.027-.12.309.12Zm.671.426,1.409-.163.436.163Z" transform="translate(16.791)" fill="#fff"/>
    <path id="Path_268" data-name="Path 268" d="M63.718,25.767l-.47-.187H62.53l.557.316-.805-.321H61.5l.886.507-1.275-.517h-.389l1.174-.579-1.664.569,1.194.646-1.758-.708H58.578v.1H59c0,.565.765,1.029,2.2,1.062a7.559,7.559,0,0,0,3.214-1l-1.06-.029Z" transform="translate(23.123)" fill="#fff"/>
    <path id="Path_269" data-name="Path 269" d="M59.029,25.4l-.423-.029v.091h1.087l1.718.737-1.221-.694,1.664-.569-1.114.579h.389l1.275.517-.886-.507H62.3l.805.321-.557-.316h.718l.47.187-.329-.187,1.06.029A6.85,6.85,0,0,0,61.358,24.4C59.861,24.369,59.116,24.843,59.029,25.4Zm4.872.029-.315.153h-.128Zm-1.1.134h-.221l.751-.258Zm-.939,0h-.356l1.208-.411Z" transform="translate(23.134)" fill="#fff"/>
    <path id="Path_270" data-name="Path 270" d="M61.676,25.571l.537-.268-.758.258Z" transform="translate(24.259)" fill="#fff"/>
    <path id="Path_271" data-name="Path 271" d="M62.528,25.432l-.443.153h.127Z" transform="translate(24.507)" fill="#fff"/>
    <path id="Path_272" data-name="Path 272" d="M61.041,25.547l.852-.421-1.208.412Z" transform="translate(23.955)" fill="#fff"/>
    <path id="Path_273" data-name="Path 273" d="M34.074,17.307c.094-1.062-1.342-2.316-1.342-2.316l-.06.665v-.062l-.208-.23.2.321v.057l.275-.23-.282.33v.311L32.3,15.79l.342.545v.043l.463-.387-.476.56v.3l-.564-.622.544.871.738-.617-.758.89v.282l-.839-.861.738,1.2L33.5,17.14l-1.047,1.235-.034.287v.478h.134v-.3A1.518,1.518,0,0,0,34.074,17.307Z" transform="translate(12.534)" fill="#fff"/>
    <path id="Path_274" data-name="Path 274" d="M32.614,18.661v-.3l1.047-1.234-.98.861-.738-1.2.778.857v-.282l.758-.89-.738.617-.544-.871.564.622v-.3l.523-.579-.463.388v-.043l-.329-.522.356.388v-.311l.282-.33-.275.23v-.057l-.2-.321.208.23v.062l.06-.665s-1.59,1.091-1.651,2.158a1.381,1.381,0,0,0,1.268,1.665l-.06.3h.134Z" transform="translate(12.342)" fill="#fff"/>
    <path id="Path_275" data-name="Path 275" d="M60.665,91.981s4.2-13.336-13.675-21.164c0,0-14.266-4.134-13.943-5.421,0,0-.53,6.522,9.682,9.417s7.381,4.345,3.852,4.574-26.84-4.943-26.84-4.943S13.2,58.477,3.959,59.433c0,0,5.7,9.417,6.576,12.441s2.416,8.613,4.12,9.091S31.53,82.4,41.542,84.837A97.931,97.931,0,0,1,60.665,91.981Z" transform="translate(1.563)" fill="#fff"/>
    <path id="Path_276" data-name="Path 276" d="M13.084,75.186l-5.75-9.153a8.931,8.931,0,0,0-3.309-1.676A11.534,11.534,0,0,0,0,63.984s.047,1.77,3.228,3.771S13.084,75.186,13.084,75.186Z" fill="#fff"/>
    <path id="Path_277" data-name="Path 277" d="M13.648,78.219,6.992,72.056A7.091,7.091,0,0,0,.409,70.305a8.9,8.9,0,0,0,4.529,3.766C8.24,75.32,13.648,78.219,13.648,78.219Z" transform="translate(0.162)" fill="#fff"/>
    <path id="Path_278" data-name="Path 278" d="M47.781,92S43.808,78.6,61.872,70.946c0,0,14.346-4,14.044-5.287,0,0,.409,6.522-9.857,9.321s-7.441,4.273-3.939,4.536,26.927-4.685,26.927-4.685S95.925,58.946,105.111,60c0,0-5.871,9.359-6.8,12.369s-2.577,8.584-4.288,9.048-16.9,1.258-26.961,3.617A100.556,100.556,0,0,0,47.781,92Z" transform="translate(18.715)" fill="#fff"/>
    <path id="Path_279" data-name="Path 279" d="M83.133,75.674l5.925-9.091A9.039,9.039,0,0,1,92.4,64.94a11.566,11.566,0,0,1,4.035-.329s-.087,1.766-3.3,3.737S83.133,75.674,83.133,75.674Z" transform="translate(32.816)" fill="#fff"/>
    <path id="Path_280" data-name="Path 280" d="M82.575,78.7l6.77-6.1a7.131,7.131,0,0,1,6.616-1.689,9.021,9.021,0,0,1-4.6,3.727C88.044,75.856,82.575,78.7,82.575,78.7Z" transform="translate(32.595)" fill="#fff"/>
    <path id="Path_281" data-name="Path 281" d="M82.893,80.234,89.24,76.8a5.721,5.721,0,0,1,5.106-.34,8.232,8.232,0,0,1-4.2,2.038Q86.452,79.216,82.893,80.234Z" transform="translate(32.721)" fill="#fff"/>
    <path id="Path_282" data-name="Path 282" d="M13.141,80.234,6.8,76.8a5.721,5.721,0,0,0-5.106-.34,8.232,8.232,0,0,0,4.2,2.038Q9.585,79.215,13.141,80.234Z" transform="translate(0.668)" fill="#fff"/>
  </g>
</svg>
