<svg width="350" height="92" viewBox="0 0 350 92" fill="none" xmlns="http://www.w3.org/2000/svg">
<g clip-path="url(#clip0_236_2088)">
<path d="M129.236 45.1076C129.236 51.4859 124.093 55.2421 116.357 55.2421C110.694 55.2421 107.818 54.7253 102.535 52.0984L104.989 46.8924C109.376 49.0073 112.441 49.4284 116.593 49.4284C120.225 49.4284 122.395 48.1125 122.395 45.6722C122.395 43.4233 120.177 42.4376 115.318 41.3084C108.477 39.758 102.954 37.8345 102.954 31.3126C102.954 25.4941 107.625 21.3647 115.222 21.3647C119.61 21.3853 123.948 22.2955 127.971 24.0395L125.233 29.3891C122.313 28.1689 118.204 27.1832 115.092 27.1832C111.695 27.1832 109.8 28.6857 109.8 30.748C109.8 33.0926 112.157 34.0975 117.16 35.2076C124.329 36.801 129.236 39.0547 129.236 45.1076Z" fill="white"/>
<path d="M134.047 22.7713C134.047 21.7692 134.442 20.807 135.147 20.0913C135.852 19.3755 136.811 18.9634 137.819 18.9434C138.823 18.961 139.779 19.3738 140.478 20.0912C141.177 20.8087 141.561 21.7725 141.547 22.7713C141.555 23.2649 141.465 23.7552 141.282 24.2139C141.099 24.6726 140.826 25.0907 140.479 25.4439C140.133 25.7972 139.719 26.0786 139.262 26.272C138.806 26.4653 138.315 26.5668 137.819 26.5705C137.32 26.5674 136.827 26.4667 136.368 26.274C135.909 26.0814 135.492 25.8007 135.142 25.4479C134.791 25.0951 134.515 24.6771 134.327 24.2179C134.139 23.7586 134.044 23.2671 134.047 22.7713ZM134.567 29.341H141.124V54.816H134.567V29.341Z" fill="white"/>
<path d="M173.434 19.4409V54.816H166.833V53.2704C164.562 54.562 161.992 55.2415 159.376 55.2418C152.256 55.2418 146.387 49.8923 146.387 42.0545C146.387 34.078 152.237 28.872 159.376 28.872C161.984 28.8766 164.549 29.5348 166.833 30.786V19.4409H173.434ZM166.833 47.1218V36.8964C165.067 35.4705 162.854 34.7067 160.579 34.7384C156.196 34.7384 152.939 37.8821 152.939 42.0545C152.939 46.361 156.196 49.3276 160.579 49.3276C162.862 49.3579 165.08 48.5755 166.833 47.1218Z" fill="white"/>
<path d="M205.513 19.4409V54.816H198.908V53.2704C196.645 54.5594 194.083 55.2389 191.475 55.2418C184.35 55.2418 178.485 49.8923 178.485 42.0545C178.485 34.078 184.335 28.872 191.475 28.872C194.081 28.8759 196.645 29.5343 198.927 30.786V19.4409H205.513ZM198.908 47.1218V36.8964C197.143 35.4687 194.928 34.7047 192.654 34.7384C188.266 34.7384 185.014 37.8821 185.014 42.0545C185.014 46.361 188.266 49.3276 192.654 49.3276C194.936 49.3595 197.155 48.577 198.908 47.1218Z" fill="white"/>
<path d="M236.082 40.5999V54.816H229.524V40.5999C229.524 36.6619 227.6 34.7384 223.958 34.7384C221.901 34.6784 219.89 35.3579 218.296 36.6523V54.8064H211.738V19.4409H218.296V30.6568C220.367 29.4331 222.743 28.8145 225.151 28.872C232.637 28.872 236.082 32.3459 236.082 40.5999Z" fill="white"/>
<path d="M267.733 29.341V54.816H261.176V52.9403C258.957 54.4172 256.346 55.202 253.676 55.194C245.656 55.194 240.941 48.7631 240.941 42.0067C240.941 35.2504 245.656 28.8242 253.676 28.8242C256.319 28.8629 258.905 29.5905 261.176 30.9344V29.341H267.733ZM261.176 36.9395C259.394 35.4901 257.156 34.7109 254.855 34.7384C250.169 34.7384 247.282 38.2075 247.282 42.0067C247.282 45.806 250.255 49.3277 254.879 49.3277C257.177 49.3781 259.418 48.6131 261.2 47.1697L261.176 36.9395Z" fill="white"/>
<path d="M298.301 40.6002V54.8163H291.744V40.6002C291.744 36.6622 289.82 34.7387 286.178 34.7387C284.105 34.6912 282.088 35.4088 280.515 36.7531V54.8163H273.958V29.3413H280.515V30.9347C282.529 29.5649 284.917 28.8448 287.356 28.8723C294.857 28.8723 298.301 32.3462 298.301 40.6002Z" fill="white"/>
<path d="M312.547 34.7384V43.7436C312.547 48.2941 313.303 49.6099 316.603 49.6099C317.614 49.5887 318.622 49.5104 319.624 49.3755V54.2561C319.34 54.347 317.358 55.2131 313.678 55.2131C309.386 55.2131 305.942 52.5383 305.942 47.1888V34.7479H302.31V29.341H305.942V19.4409H312.547V29.341H319.716V34.7384H312.547Z" fill="white"/>
<path d="M350 29.341V54.816H343.443V52.9403C341.224 54.4178 338.612 55.2025 335.943 55.194C327.923 55.194 323.208 48.7631 323.208 42.0067C323.208 35.2504 327.923 28.8242 335.943 28.8242C338.585 28.8629 341.171 29.5905 343.443 30.9344V29.341H350ZM343.443 36.9395C341.661 35.4901 339.423 34.7109 337.121 34.7384C332.435 34.7384 329.549 38.2075 329.549 42.0067C329.549 45.806 332.522 49.3277 337.14 49.3277C339.439 49.3781 341.679 48.6131 343.462 47.1697L343.443 36.9395Z" fill="white"/>
<path d="M111.027 72.5397C111.03 72.6128 111.017 72.6858 110.988 72.753C110.959 72.8202 110.914 72.8798 110.858 72.9273C110.744 73.0231 110.599 73.0757 110.449 73.0757C110.3 73.0757 110.155 73.0231 110.04 72.9273C109.985 72.8793 109.942 72.8195 109.913 72.7523C109.885 72.6852 109.873 72.6125 109.877 72.5397V67.305C109.873 67.2323 109.885 67.1596 109.913 67.0924C109.942 67.0252 109.985 66.9654 110.04 66.9174C110.155 66.8216 110.3 66.769 110.449 66.769C110.599 66.769 110.744 66.8216 110.858 66.9174C110.913 66.966 110.956 67.0258 110.985 67.0928C111.014 67.1597 111.028 67.2321 111.027 67.305V72.5397Z" fill="white"/>
<path d="M125.137 67.3001V72.5157C125.14 72.6644 125.085 72.8085 124.983 72.9176C124.932 72.9699 124.871 73.0109 124.803 73.0381C124.735 73.0653 124.662 73.0781 124.589 73.0755C124.482 73.0781 124.376 73.0524 124.282 73.0012C124.188 72.9499 124.11 72.8749 124.055 72.7836L121.818 69.3241V72.5396C121.822 72.6123 121.809 72.6851 121.781 72.7522C121.753 72.8194 121.709 72.8792 121.654 72.9272C121.539 73.0284 121.389 73.0815 121.235 73.0755C121.087 73.0798 120.942 73.0266 120.831 72.9272C120.776 72.8792 120.733 72.8194 120.704 72.7522C120.676 72.6851 120.664 72.6123 120.668 72.5396V67.3336C120.661 67.1822 120.715 67.0343 120.817 66.9221C120.868 66.8692 120.929 66.8274 120.997 66.7994C121.065 66.7714 121.138 66.7578 121.211 66.7594C121.319 66.7587 121.424 66.7862 121.517 66.8391C121.61 66.8921 121.687 66.9686 121.741 67.0609L123.987 70.5299V67.3001C123.984 67.227 123.997 67.154 124.026 67.0868C124.055 67.0197 124.1 66.96 124.156 66.9125C124.268 66.8143 124.413 66.7601 124.562 66.7601C124.712 66.7601 124.856 66.8143 124.969 66.9125C125.023 66.9611 125.067 67.0209 125.096 67.0879C125.125 67.1548 125.139 67.2272 125.137 67.3001Z" fill="white"/>
<path d="M138.487 67.3384C138.49 67.4117 138.477 67.4847 138.449 67.5524C138.421 67.6202 138.378 67.681 138.324 67.7307C138.208 67.8303 138.058 67.8832 137.905 67.8791H136.943V72.5396C136.947 72.6127 136.933 72.6857 136.904 72.7529C136.875 72.8201 136.831 72.8797 136.775 72.9272C136.663 73.0278 136.516 73.081 136.366 73.0755C136.292 73.0787 136.218 73.0672 136.149 73.0417C136.079 73.0162 136.016 72.9773 135.962 72.9272C135.906 72.8797 135.861 72.8201 135.832 72.7529C135.803 72.6857 135.79 72.6127 135.793 72.5396V67.8791H134.831C134.678 67.8832 134.529 67.8303 134.412 67.7307C134.359 67.6802 134.317 67.6193 134.289 67.5517C134.261 67.4841 134.247 67.4115 134.249 67.3384C134.245 67.2657 134.257 67.1929 134.286 67.1258C134.314 67.0586 134.357 66.9988 134.412 66.9508C134.529 66.8513 134.678 66.7984 134.831 66.8025H137.891C138.044 66.7984 138.193 66.8513 138.309 66.9508C138.367 66.9973 138.413 67.0565 138.444 67.1238C138.475 67.191 138.49 67.2645 138.487 67.3384Z" fill="white"/>
<path d="M150.875 72.4967C150.879 72.5698 150.865 72.6428 150.836 72.71C150.807 72.7772 150.763 72.8368 150.707 72.8843C150.592 72.9855 150.442 73.0387 150.288 73.0327H148.176C148.027 73.0337 147.883 72.979 147.772 72.8795C147.717 72.8319 147.673 72.7731 147.643 72.707C147.613 72.6409 147.598 72.5692 147.599 72.4967V67.3529C147.597 67.2802 147.611 67.208 147.641 67.1416C147.671 67.0753 147.716 67.0167 147.772 66.9701C147.881 66.8672 148.026 66.8106 148.176 66.8122H150.288C150.441 66.8081 150.591 66.861 150.707 66.9606C150.76 67.0107 150.803 67.0711 150.832 67.1382C150.861 67.2052 150.876 67.2775 150.876 67.3505C150.876 67.4236 150.861 67.4958 150.832 67.5629C150.803 67.63 150.76 67.6904 150.707 67.7405C150.592 67.8417 150.442 67.8948 150.288 67.8888H148.749V69.3243H149.913C150.063 69.3188 150.21 69.372 150.322 69.4727C150.375 69.5223 150.418 69.5824 150.447 69.649C150.476 69.7157 150.491 69.7876 150.491 69.8602C150.491 69.9329 150.476 70.0048 150.447 70.0714C150.418 70.1381 150.375 70.1981 150.322 70.2478C150.21 70.3484 150.063 70.4017 149.913 70.3961H148.749V71.9752H150.288C150.441 71.9698 150.59 72.0209 150.707 72.1187C150.76 72.1664 150.802 72.2248 150.831 72.2899C150.86 72.355 150.875 72.4255 150.875 72.4967Z" fill="white"/>
<path d="M163.451 72.4963C163.455 72.569 163.443 72.6417 163.414 72.7089C163.386 72.7761 163.343 72.8359 163.287 72.8839C163.172 72.9851 163.022 73.0382 162.869 73.0322H160.819C160.672 73.0325 160.529 72.9779 160.42 72.8791C160.365 72.8315 160.321 72.7726 160.291 72.7065C160.261 72.6405 160.246 72.5687 160.247 72.4963V67.3142C160.243 67.2415 160.255 67.1688 160.284 67.1016C160.312 67.0344 160.355 66.9746 160.41 66.9266C160.521 66.8272 160.666 66.774 160.815 66.7783C160.968 66.7723 161.118 66.8254 161.233 66.9266C161.287 66.9758 161.329 67.0359 161.357 67.1028C161.385 67.1696 161.399 67.2417 161.397 67.3142V71.9604H162.84C162.993 71.954 163.142 72.0053 163.259 72.1039C163.32 72.1495 163.369 72.2088 163.402 72.277C163.436 72.3452 163.452 72.4204 163.451 72.4963Z" fill="white"/>
<path d="M175.854 72.4967C175.858 72.5694 175.846 72.6422 175.818 72.7093C175.789 72.7765 175.746 72.8363 175.691 72.8843C175.576 72.9855 175.426 73.0386 175.272 73.0326H173.223C173.075 73.0329 172.933 72.9783 172.823 72.8795C172.768 72.8319 172.725 72.773 172.695 72.707C172.665 72.6409 172.65 72.5692 172.65 72.4967V67.3146C172.646 67.2419 172.659 67.1692 172.687 67.102C172.715 67.0348 172.759 66.975 172.814 66.927C172.925 66.8264 173.072 66.7732 173.223 66.7787C173.375 66.7735 173.523 66.8266 173.636 66.927C173.692 66.975 173.735 67.0348 173.763 67.102C173.792 67.1692 173.804 67.2419 173.8 67.3146V71.9608H175.267C175.422 71.9546 175.572 72.0058 175.691 72.1043C175.745 72.1539 175.788 72.2147 175.816 72.2825C175.845 72.3503 175.857 72.4234 175.854 72.4967Z" fill="white"/>
<path d="M188.242 72.4967C188.246 72.5698 188.233 72.6428 188.203 72.71C188.174 72.7772 188.13 72.8368 188.074 72.8843C187.959 72.9855 187.809 73.0387 187.655 73.0327H185.543C185.394 73.0337 185.25 72.979 185.139 72.8795C185.084 72.8319 185.04 72.7731 185.011 72.707C184.981 72.6409 184.965 72.5692 184.966 72.4967V67.3529C184.964 67.2802 184.978 67.208 185.008 67.1416C185.038 67.0753 185.083 67.0167 185.139 66.9701C185.248 66.8672 185.393 66.8106 185.543 66.8122H187.655C187.809 66.8081 187.958 66.861 188.074 66.9606C188.127 67.0107 188.17 67.0711 188.199 67.1382C188.228 67.2052 188.243 67.2775 188.243 67.3505C188.243 67.4236 188.228 67.4958 188.199 67.5629C188.17 67.63 188.127 67.6904 188.074 67.7405C187.959 67.8417 187.809 67.8948 187.655 67.8888H186.116V69.3243H187.28C187.432 69.32 187.58 69.373 187.694 69.4727C187.746 69.523 187.787 69.5833 187.816 69.6499C187.844 69.7164 187.858 69.788 187.858 69.8602C187.858 69.9325 187.844 70.004 187.816 70.0706C187.787 70.1372 187.746 70.1974 187.694 70.2478C187.58 70.3474 187.432 70.4004 187.28 70.3961H186.116V71.9752H187.655C187.808 71.9698 187.957 72.0209 188.074 72.1187C188.127 72.1664 188.17 72.2248 188.199 72.2899C188.228 72.355 188.242 72.4255 188.242 72.4967Z" fill="white"/>
<path d="M201.578 72.2526C201.578 72.5206 201.338 72.7311 200.857 72.889C200.511 73.0071 200.149 73.0685 199.784 73.0708C199.413 73.0914 199.043 73.02 198.707 72.863C198.371 72.7059 198.08 72.4682 197.859 72.1713C197.457 71.5322 197.262 70.7854 197.301 70.0324C197.259 69.2316 197.467 68.4375 197.898 67.7595C198.127 67.4347 198.436 67.1738 198.796 67.0021C199.156 66.8303 199.554 66.7534 199.952 66.7786C200.361 66.7741 200.768 66.8388 201.155 66.97C201.263 66.9969 201.36 67.0582 201.43 67.1445C201.5 67.2308 201.541 67.3375 201.545 67.4485C201.546 67.5226 201.533 67.5963 201.506 67.6653C201.478 67.7343 201.438 67.7972 201.386 67.8505C201.334 67.9035 201.272 67.9453 201.203 67.9733C201.134 68.0013 201.061 68.0149 200.986 68.0131C200.915 68.0119 200.843 68.0006 200.775 67.9796C200.507 67.8936 200.228 67.8468 199.947 67.8409C198.95 67.8409 198.451 68.5682 198.451 70.0228C198.427 70.4834 198.509 70.9434 198.692 71.3674C198.795 71.5664 198.955 71.7307 199.152 71.8396C199.349 71.9486 199.574 71.9973 199.798 71.9799C200.12 71.9732 200.437 71.8964 200.727 71.755C200.821 71.7083 200.924 71.6822 201.03 71.6784C201.104 71.6784 201.178 71.6933 201.246 71.722C201.315 71.7508 201.377 71.7929 201.429 71.8459C201.481 71.9 201.52 71.9639 201.546 72.0339C201.572 72.1038 201.583 72.1783 201.578 72.2526Z" fill="white"/>
<path d="M214.731 67.3384C214.733 67.412 214.719 67.4851 214.69 67.5528C214.661 67.6205 214.617 67.6812 214.562 67.7307C214.446 67.8303 214.297 67.8832 214.144 67.8791H213.206V72.5396C213.209 72.6127 213.196 72.6857 213.167 72.7529C213.138 72.8201 213.093 72.8797 213.037 72.9272C212.923 73.0268 212.775 73.0798 212.624 73.0755C212.475 73.0798 212.33 73.0266 212.219 72.9272C212.164 72.8792 212.121 72.8194 212.093 72.7522C212.064 72.685 212.052 72.6123 212.056 72.5396V67.8791H211.094C210.94 67.8832 210.791 67.8303 210.675 67.7307C210.621 67.681 210.578 67.6202 210.55 67.5524C210.522 67.4847 210.509 67.4117 210.512 67.3384C210.507 67.2657 210.52 67.1929 210.548 67.1258C210.577 67.0586 210.62 66.9988 210.675 66.9508C210.791 66.8513 210.94 66.7984 211.094 66.8025H214.153C214.305 66.7996 214.452 66.8524 214.567 66.9508C214.622 66.9988 214.666 67.0586 214.694 67.1258C214.722 67.1929 214.735 67.2657 214.731 67.3384Z" fill="white"/>
<path d="M227.74 70.688C227.74 72.283 227.076 73.0805 225.748 73.0805C224.42 73.0805 223.755 72.283 223.752 70.688V67.3003C223.748 67.2283 223.761 67.1566 223.789 67.0903C223.818 67.024 223.861 66.9649 223.915 66.9175C224.03 66.8213 224.176 66.7686 224.326 66.7686C224.477 66.7686 224.623 66.8213 224.738 66.9175C224.792 66.9649 224.835 67.024 224.864 67.0903C224.892 67.1566 224.905 67.2283 224.901 67.3003V70.6928C224.884 70.9908 224.93 71.2891 225.036 71.5684C225.105 71.6999 225.208 71.8101 225.335 71.887C225.463 71.9639 225.609 72.0046 225.758 72.0046C225.907 72.0046 226.053 71.9639 226.18 71.887C226.307 71.8101 226.411 71.6999 226.479 71.5684C226.581 71.288 226.625 70.9904 226.609 70.6928V67.3003C226.606 67.228 226.62 67.1559 226.649 67.0896C226.678 67.0233 226.722 66.9645 226.778 66.9175C226.887 66.8172 227.033 66.7639 227.182 66.7691C227.334 66.7624 227.483 66.8157 227.595 66.9175C227.65 66.9649 227.693 67.024 227.721 67.0903C227.75 67.1566 227.762 67.2283 227.759 67.3003L227.74 70.688Z" fill="white"/>
<path d="M241.408 72.5398C241.41 72.6141 241.394 72.6878 241.363 72.755C241.331 72.8223 241.284 72.8813 241.225 72.9274C241.108 73.0257 240.96 73.0784 240.807 73.0757C240.556 73.0757 240.364 72.913 240.224 72.5972C240.085 72.2814 240.061 72.0565 239.979 71.7933H238.055C237.973 72.0613 237.886 72.3292 237.8 72.602C237.713 72.8747 237.468 73.0805 237.218 73.0805C237.065 73.0832 236.916 73.0305 236.799 72.9321C236.743 72.8881 236.697 72.8322 236.666 72.7684C236.634 72.7047 236.617 72.6348 236.616 72.5637C236.617 72.5008 236.625 72.4382 236.64 72.3771L238.387 67.1567C238.423 67.0438 238.5 66.9483 238.603 66.8888C238.701 66.8164 238.818 66.7763 238.94 66.7739H239.103C239.223 66.777 239.339 66.8171 239.435 66.8888C239.538 66.9483 239.616 67.0438 239.652 67.1567L241.389 72.3723C241.401 72.4273 241.408 72.4834 241.408 72.5398ZM239.628 70.7024L239.031 68.9319L238.43 70.7024H239.628Z" fill="white"/>
<path d="M253.853 72.4967C253.857 72.5694 253.845 72.6422 253.817 72.7093C253.788 72.7765 253.745 72.8363 253.69 72.8843C253.575 72.9855 253.425 73.0386 253.271 73.0326H251.227C251.077 73.0337 250.933 72.979 250.822 72.8795C250.768 72.8319 250.724 72.773 250.694 72.707C250.664 72.6409 250.649 72.5692 250.649 72.4967V67.3146C250.645 67.2419 250.658 67.1692 250.686 67.102C250.714 67.0348 250.758 66.975 250.813 66.927C250.924 66.8264 251.071 66.7732 251.222 66.7787C251.374 66.7735 251.522 66.8266 251.635 66.927C251.691 66.975 251.734 67.0348 251.762 67.102C251.791 67.1692 251.803 67.2419 251.799 67.3146V71.9608H253.271C253.424 71.9554 253.573 72.0065 253.69 72.1043C253.744 72.1539 253.787 72.2147 253.815 72.2825C253.844 72.3503 253.856 72.4234 253.853 72.4967Z" fill="white"/>
<path d="M277.215 71.1186C277.228 71.3873 277.181 71.6555 277.077 71.9037C276.973 72.152 276.815 72.3742 276.614 72.5541C276.186 72.8956 275.646 73.0663 275.098 73.0326C274.669 73.0478 274.243 72.9522 273.862 72.7551C273.771 72.7123 273.694 72.6445 273.64 72.5598C273.587 72.475 273.558 72.3768 273.559 72.2766C273.554 72.1358 273.604 71.9984 273.698 71.8938C273.743 71.8403 273.799 71.7977 273.862 71.7695C273.925 71.7412 273.995 71.7281 274.064 71.7311C274.161 71.7359 274.257 71.7552 274.348 71.7885C274.586 71.8897 274.84 71.9495 275.098 71.9656C275.743 71.9656 276.061 71.6737 276.061 71.0947C276.061 70.8076 275.849 70.5636 275.426 70.3626C274.67 70.0037 274.281 69.8123 274.252 69.7884C274.049 69.658 273.883 69.4775 273.771 69.2645C273.659 69.0516 273.604 68.8133 273.612 68.573C273.598 68.3171 273.643 68.0614 273.743 67.8252C273.843 67.589 273.996 67.3784 274.189 67.2093C274.595 66.8795 275.109 66.7092 275.633 66.7308C275.928 66.7318 276.22 66.7886 276.494 66.8983C276.859 67.0419 277.042 67.2333 277.042 67.4773C277.042 67.5465 277.029 67.6151 277.003 67.6792C276.976 67.7432 276.937 67.8014 276.888 67.8505C276.842 67.9019 276.784 67.9426 276.72 67.9699C276.656 67.9972 276.587 68.0103 276.518 68.0084C276.376 67.9934 276.237 67.9596 276.104 67.9079C275.95 67.8493 275.788 67.8154 275.623 67.8074C275.055 67.8074 274.767 68.0563 274.767 68.5587C274.767 68.7501 274.959 68.9319 275.344 69.0994C275.803 69.2854 276.242 69.5145 276.657 69.7836C276.848 69.9478 276.998 70.1539 277.095 70.3856C277.191 70.6174 277.233 70.8683 277.215 71.1186Z" fill="white"/>
<path d="M290.624 72.2523C290.624 72.5202 290.378 72.7308 289.897 72.8887C289.552 73.0067 289.19 73.0681 288.825 73.0705C288.454 73.092 288.084 73.021 287.747 72.8638C287.411 72.7067 287.12 72.4685 286.9 72.1709C286.498 71.5319 286.303 70.7851 286.342 70.0321C286.301 69.2321 286.507 68.4388 286.934 67.7592C287.164 67.435 287.473 67.1747 287.833 67.003C288.192 66.8313 288.59 66.754 288.988 66.7783C289.397 66.7734 289.804 66.8381 290.191 66.9697C290.299 66.9971 290.396 67.0584 290.467 67.1445C290.538 67.2306 290.58 67.337 290.585 67.4482C290.586 67.5226 290.572 67.5964 290.544 67.6654C290.516 67.7344 290.474 67.7972 290.422 67.8501C290.37 67.9036 290.308 67.9458 290.24 67.9738C290.171 68.0018 290.097 68.0151 290.022 68.0128C289.952 68.0116 289.883 68.0003 289.816 67.9793C289.546 67.8935 289.266 67.8468 288.983 67.8406C287.989 67.8406 287.492 68.5679 287.492 70.0225C287.466 70.4827 287.547 70.9426 287.728 71.3671C287.832 71.5653 287.992 71.7288 288.189 71.8376C288.386 71.9464 288.61 71.9958 288.834 71.9795C289.156 71.9729 289.473 71.8961 289.763 71.7546C289.857 71.708 289.96 71.6819 290.066 71.6781C290.14 71.6781 290.214 71.6929 290.282 71.7217C290.351 71.7505 290.413 71.7926 290.465 71.8456C290.519 71.8983 290.561 71.9618 290.588 72.032C290.616 72.1021 290.628 72.1772 290.624 72.2523Z" fill="white"/>
<path d="M304.416 72.5299C304.421 72.6026 304.408 72.6754 304.38 72.7425C304.351 72.8097 304.308 72.8695 304.253 72.9175C304.141 73.0135 303.997 73.0647 303.849 73.061C303.696 73.0665 303.547 73.0153 303.43 72.9175C303.376 72.87 303.333 72.811 303.304 72.7447C303.276 72.6784 303.263 72.6066 303.267 72.5347V70.4006H301.164V72.5347C301.167 72.607 301.153 72.679 301.124 72.7454C301.095 72.8117 301.051 72.8705 300.996 72.9175C300.88 73.0107 300.736 73.0616 300.587 73.0616C300.438 73.0616 300.294 73.0107 300.178 72.9175C300.123 72.8695 300.08 72.8097 300.051 72.7425C300.023 72.6754 300.01 72.6026 300.014 72.5299V67.3143C300.01 67.2416 300.023 67.1689 300.051 67.1017C300.08 67.0346 300.123 66.9747 300.178 66.9268C300.293 66.8309 300.437 66.7784 300.587 66.7784C300.737 66.7784 300.881 66.8309 300.996 66.9268C301.051 66.9761 301.095 67.0367 301.124 67.1045C301.153 67.1722 301.167 67.2455 301.164 67.3191V69.324H303.286V67.3191C303.284 67.2459 303.297 67.1731 303.325 67.1055C303.353 67.0378 303.396 66.9769 303.449 66.9268C303.565 66.8306 303.71 66.7778 303.861 66.7778C304.011 66.7778 304.157 66.8306 304.272 66.9268C304.327 66.9747 304.371 67.0346 304.399 67.1017C304.427 67.1689 304.44 67.2416 304.436 67.3143L304.416 72.5299Z" fill="white"/>
<path d="M318.825 69.8598C318.855 70.6341 318.641 71.3984 318.214 72.0465C318.004 72.3685 317.712 72.6305 317.369 72.8066C317.026 72.9828 316.642 73.0671 316.256 73.0514C315.879 73.073 315.503 72.996 315.166 72.8281C314.828 72.6602 314.541 72.4072 314.332 72.0944C313.966 71.4262 313.778 70.6755 313.788 69.9145C313.799 69.1535 314.006 68.408 314.39 67.7497C314.602 67.4286 314.895 67.1676 315.239 66.9916C315.582 66.8156 315.966 66.7306 316.352 66.7448C316.729 66.7246 317.105 66.8022 317.442 66.97C317.779 67.1378 318.067 67.39 318.277 67.7018C318.672 68.3505 318.863 69.1021 318.825 69.8598ZM317.675 69.8598C317.675 68.5137 317.234 67.8406 316.352 67.8406C316.114 67.8344 315.878 67.8994 315.677 68.0273C315.475 68.1552 315.317 68.3402 315.222 68.5583C315.02 68.9994 314.923 69.4807 314.938 69.9651C314.938 71.3113 315.377 71.9827 316.256 71.9796C316.495 71.9851 316.73 71.9198 316.931 71.792C317.133 71.6642 317.291 71.4796 317.387 71.2618C317.593 70.8236 317.692 70.3432 317.675 69.8598Z" fill="white"/>
<path d="M333.055 69.86C333.084 70.6335 332.873 71.3971 332.449 72.0467C332.237 72.3684 331.945 72.63 331.601 72.8061C331.257 72.9821 330.873 73.0667 330.486 73.0515C330.11 73.0727 329.734 72.9955 329.396 72.8276C329.059 72.6598 328.771 72.407 328.562 72.0945C328.198 71.4254 328.013 70.6747 328.024 69.9141C328.035 69.1534 328.242 68.4083 328.625 67.7498C328.836 67.4285 329.127 67.1671 329.471 66.991C329.814 66.8149 330.197 66.7302 330.583 66.745C330.959 66.7243 331.335 66.8017 331.672 66.9695C332.01 67.1374 332.298 67.3898 332.507 67.702C332.903 68.3506 333.094 69.1023 333.055 69.86ZM331.906 69.86C331.906 68.5154 331.468 67.8407 330.583 67.8407C330.344 67.8345 330.108 67.8996 329.907 68.0275C329.705 68.1554 329.547 68.3403 329.452 68.5585C329.252 69 329.157 69.4813 329.173 69.9652C329.173 71.3114 329.611 71.9829 330.486 71.9797C330.725 71.9859 330.961 71.9209 331.162 71.7929C331.364 71.665 331.522 71.4801 331.617 71.262C331.823 70.8237 331.922 70.3434 331.906 69.86Z" fill="white"/>
<path d="M345.636 72.4963C345.64 72.5694 345.627 72.6424 345.598 72.7096C345.568 72.7768 345.524 72.8364 345.468 72.8839C345.353 72.9851 345.203 73.0383 345.05 73.0323H343.019C342.872 73.033 342.729 72.9783 342.62 72.8791C342.563 72.8331 342.517 72.7746 342.486 72.7083C342.455 72.6419 342.44 72.5694 342.442 72.4963V67.3142C342.438 67.2411 342.452 67.1682 342.481 67.101C342.51 67.0338 342.554 66.9742 342.61 66.9267C342.665 66.8765 342.728 66.8376 342.797 66.8122C342.867 66.7867 342.941 66.7752 343.014 66.7783C343.167 66.7721 343.315 66.8253 343.428 66.9267C343.483 66.9746 343.527 67.0345 343.555 67.1016C343.583 67.1688 343.596 67.2415 343.592 67.3142V71.9604H345.064C345.217 71.955 345.366 72.0062 345.482 72.104C345.535 72.1546 345.576 72.2158 345.602 72.2835C345.629 72.3512 345.641 72.4238 345.636 72.4963Z" fill="white"/>
<path d="M22.5679 34.2312L22.5391 34.1738C22.5391 34.1738 22.5391 34.2073 22.5391 34.2217L22.5679 34.2312Z" fill="white"/>
<path d="M16.3574 50.1604L16.6365 50.2131C16.545 50.1078 16.4536 49.993 16.367 49.8877C16.3759 49.9786 16.3726 50.0703 16.3574 50.1604Z" fill="white"/>
<path d="M15.0916 21.5655C15.0008 21.5813 14.9093 21.5925 14.8174 21.599L16.9486 23.2402C16.9675 23.253 16.9896 23.2603 17.0125 23.261C17.0353 23.2618 17.0579 23.256 17.0776 23.2445C17.0973 23.2329 17.1133 23.2161 17.1237 23.1958C17.134 23.1756 17.1384 23.1528 17.1363 23.1301C16.9613 22.3008 16.871 21.4559 16.8668 20.6085C16.8668 20.5415 16.8668 20.4697 16.8957 20.3979C16.6888 20.9243 16.0971 21.3741 15.0916 21.5655Z" fill="white"/>
<path d="M16.9823 19.9197L17.0112 19.8145H16.9775C16.9775 19.8527 16.9823 19.8862 16.9823 19.9197Z" fill="white"/>
<path d="M13.4708 35.356C13.2158 35.2842 12.9608 35.2173 12.6962 35.1598C11.545 34.8115 10.4389 34.3297 9.40076 33.7244C9.37524 33.7072 9.34393 33.7009 9.3137 33.7067C9.28348 33.7125 9.25682 33.7301 9.2396 33.7555C9.22237 33.7808 9.21599 33.812 9.22185 33.842C9.22772 33.8721 9.24535 33.8986 9.27087 33.9157C10.497 35.0136 12.0184 35.732 13.6488 35.9828C14.2806 36.0659 14.8995 36.2266 15.4914 36.4613L15.424 36.0642C15.065 36.1164 14.6985 36.0791 14.3575 35.9554C14.0166 35.8318 13.7118 35.6258 13.4708 35.356Z" fill="white"/>
<path d="M13.0955 49.1893L13.3841 49.4525L13.692 49.5338L13.2542 49.7061L13.846 49.5721H13.8893L13.5717 49.1654L14.0528 49.6152L14.5339 49.7396L14.3607 49.6917L13.6632 49.9693L14.6253 49.7587L14.1106 49.1128L14.8996 49.8305L15.1738 49.9023L14.2116 50.2851L15.5154 49.9932L14.8082 49.108L15.8906 50.065L16.1841 50.1463L16.6652 50.2659V50.175L16.3861 50.1224C16.3981 50.0319 16.3981 49.9402 16.3861 49.8496C16.3464 49.6341 16.2511 49.4326 16.1094 49.2648C15.9677 49.097 15.7845 48.9688 15.5779 48.8927C15.4126 48.8082 15.2383 48.7424 15.0583 48.6965C14.0095 48.4189 12.5566 49.175 12.5566 49.175L13.2975 49.3712L13.0955 49.1893Z" fill="white"/>
<path d="M12.8838 49.4857L13.2302 49.4092L13.1388 49.3853L12.8838 49.4857Z" fill="white"/>
<path d="M16.6408 50.3088L16.1597 50.1892L15.8662 50.1079L14.7837 49.1509L15.4909 50.0361L14.1872 50.328L15.1494 49.9452L14.8751 49.8734L14.0862 49.1557L14.6154 49.7634L13.6532 49.9739L14.3508 49.6964L14.524 49.7442L14.0429 49.6198L13.5618 49.17L13.8793 49.5767H13.836L13.2442 49.7107L13.682 49.5385L13.3741 49.4571L13.0855 49.1939L13.2731 49.4284L12.5322 49.2322C12.5322 49.2322 13.4174 50.6007 14.4566 50.8782C15.4958 51.1558 16.1067 50.8495 16.2992 50.3088L16.5927 50.4093L16.636 50.2418L16.6408 50.3088ZM12.8834 49.4858L13.1384 49.3853L13.2298 49.4093L12.8834 49.4858Z" fill="white"/>
<path d="M15.0923 21.5655C16.0978 21.3741 16.6895 20.9243 16.8964 20.398C16.9589 20.2463 16.9884 20.0833 16.983 19.9195C16.983 19.886 16.983 19.8525 16.983 19.819H17.0167L17.3871 19.776L17.3198 19.5224L17.3438 19.6468L16.7088 19.7664L16.3143 19.8429L14.438 19.2783L15.8043 19.9386L14.4332 21.0535L15.3665 20.0391L14.9961 20.1109L13.6394 19.7042L14.6257 20.1827L13.6106 20.9818L14.2889 20.2497L13.8944 20.3214L13.0429 20.0678L13.6635 20.3693L12.9803 20.4985L12.4992 20.3454L12.8649 20.5224H12.7879L12.4174 20.8143L12.6676 20.5463L11.8594 20.6994C11.8594 20.6994 13.4325 21.6564 14.794 21.599H14.8662C14.942 21.5911 15.0175 21.5799 15.0923 21.5655ZM12.9418 20.8669L13.3652 20.3884L13.5769 20.3501L12.9418 20.8669Z" fill="white"/>
<path d="M12.9414 20.8672L13.5764 20.3647L13.3648 20.403L12.9414 20.8672Z" fill="white"/>
<path d="M12.3692 20.8145L12.7396 20.5227H12.8166L12.4509 20.3456L12.932 20.4987L13.6152 20.3695L12.9946 20.0681L13.8461 20.3217L14.2406 20.2499L13.5623 20.982L14.5774 20.1829L13.5911 19.7044L14.9478 20.1112L15.3183 20.0394L14.433 21.0538L15.833 19.9533L14.4667 19.2929L16.3574 19.8432L16.7519 19.7666L17.387 19.647L17.3196 19.5226L17.0502 19.5896L16.9203 19.6279C16.7182 18.891 15.886 18.4364 14.5148 18.6709C13.1437 18.9054 11.7822 20.6758 11.7822 20.6758L12.5905 20.5227L12.3692 20.8145Z" fill="white"/>
<path d="M7.57752 39.3128L8.20294 39.6955L8.26548 39.7912L8.32321 39.174L8.37613 39.9731L8.70809 40.5281L7.81326 40.1645L8.88128 40.8104L8.92939 40.887L9.03523 39.8391L9.14107 41.198L9.47303 41.7483L8.02975 41.1645L9.73282 42.1981V42.2268L9.9012 40.5473L10.0311 42.7196L10.4737 43.4469L10.3342 43.2173L8.3617 42.4134L10.7094 43.8489L10.9404 41.533L11.1136 44.4996L11.4311 45.0308L11.5465 44.9781L11.4359 45.0451L11.9507 45.892L12.119 45.7916L11.7727 45.3131C12.7348 44.6336 12.9513 43.1886 11.8448 41.3607C10.6902 39.4467 7.47168 38.4897 7.47168 38.4897L8.12597 39.5711L7.57752 39.3128Z" fill="white"/>
<path d="M12.1143 45.7725L11.946 45.873L11.4312 45.0261L11.5467 44.9782L11.436 45.0452L11.1137 44.4997L10.9309 41.5044L10.6999 43.8203L8.3522 42.3848L10.3247 43.1887L10.4642 43.4183L10.0216 42.691L9.8917 40.5187L9.72331 42.1982V42.1695L8.00581 41.1503L9.44909 41.734L9.14119 41.1981L9.0594 39.8392L8.95356 40.8871L8.90546 40.8105L7.83743 40.1646L8.73226 40.5282L8.40031 39.9732L8.34739 39.1741L8.28966 39.7913L8.22711 39.6956L7.60169 39.3129L8.1309 39.5282L7.47661 38.4468C7.47661 38.4468 6.81751 41.7292 7.9577 43.6337C9.06422 45.4615 10.4498 45.9448 11.5082 45.4184L11.6381 45.672L11.792 45.9735L12.1143 45.7725Z" fill="white"/>
<path d="M18.0941 48.2274L18.5752 47.7968H18.6714L18.1903 47.591L18.8735 47.7537L19.4267 47.6102L18.8927 48.2657L19.6769 47.5145L19.5326 47.5528L19.7539 47.4953L18.8975 47.146L20.0618 47.4188L20.5814 47.2848L19.725 48.3279L21.0192 47.17H21.048L19.6865 46.6053L21.5484 47.036L22.4191 46.8159L22.0391 46.9116L20.8748 48.3471L22.6549 46.7489L20.769 45.9833L23.3332 46.5814L23.8576 46.4474L24.6947 46.2321L24.6562 46.0694L24.1366 46.2369C23.8047 45.2799 22.6404 44.7296 20.8315 45.1938C18.9408 45.6723 17.334 48.1126 17.334 48.1126L18.4068 47.8399L18.0941 48.2274Z" fill="white"/>
<path d="M24.6556 46.0695L24.6941 46.2322L23.857 46.4475L23.3326 46.5815L20.7684 45.9834L22.6591 46.7538L20.8791 48.3519L22.0433 46.9165L22.4234 46.8208L21.5526 47.0409L19.6908 46.6102L21.0619 47.1701H21.033L19.7244 48.328L20.5712 47.2849L20.0516 47.4189L18.8873 47.1461L19.7437 47.4954L19.5224 47.5529L19.6667 47.5146L18.8537 48.2419L19.3877 47.5864L18.8344 47.7299L18.1513 47.5672L18.6324 47.773H18.5361L18.055 48.2036L18.3678 47.816L17.2949 48.0888C17.2949 48.0888 19.888 49.4573 21.7739 48.974C23.5876 48.4955 24.3429 47.4811 24.1794 46.4715L24.7134 46.3758L24.6556 46.0695Z" fill="white"/>
<path d="M13.86 28.7624L13.3789 28.3652L13.9081 28.9681L13.86 28.7624Z" fill="white"/>
<path d="M15.5149 35.6283L15.3562 34.968L16.1644 31.7669L15.1493 34.1163L13.1624 31.8482L14.9617 33.3411L14.8125 32.7191L15.3947 30.3936L14.6586 32.1018V32.0683L13.2153 30.4223L14.5191 31.5037L14.3603 30.8482L14.7308 29.4127L14.2497 30.4797L14.2256 30.384L13.3404 29.3314L14.1583 30.0108L14.2304 30.3123L13.9947 29.317L14.2112 28.4653L13.9514 29.0921L13.5473 27.4126C13.5473 27.4126 11.748 30.6233 12.3205 33.0158C12.4863 33.884 12.8834 34.692 13.4703 35.3556C13.7118 35.6246 14.0168 35.8296 14.3577 35.9524C14.6986 36.0752 15.0649 36.1118 15.4235 36.059L15.4909 36.4561L15.539 36.7337L15.7507 36.6858L15.5149 35.6283ZM13.86 28.7619L13.9081 28.9677L13.3789 28.3648L13.86 28.7619Z" fill="white"/>
<path d="M15.8379 36.1882L15.7705 35.9824C17.0118 35.5853 17.6949 34.1402 17.1657 31.8578C16.5932 29.4653 13.5335 27.4126 13.5335 27.4126L13.952 29.0921L14.2262 28.4653L14.0097 29.317L14.2455 30.3123L14.1733 30.0108L13.3555 29.3314L14.2599 30.3649L14.284 30.4606L14.7651 29.3936L14.3946 30.829L14.5534 31.4846L13.2496 30.4032L14.6929 32.0492V32.0827L15.3953 30.3936L14.8084 32.7191L14.9575 33.3411L13.1582 31.8482L15.1451 34.1163L16.1602 31.7669L15.352 34.968L15.5107 35.6283L15.7657 36.6858L15.9245 36.6475H15.9726L15.8379 36.1882Z" fill="white"/>
<path d="M19.1134 33.4947L19.4598 33.4229H19.5127L19.3347 33.1837L19.6138 33.4516L19.912 33.5378L19.4791 33.7005L20.066 33.5808H20.1093L19.8014 33.1741L20.2825 33.6526L20.5663 33.7339L19.8639 33.9732L20.8261 33.7866L20.345 33.1406L21.1051 33.8631L21.3746 33.9445L20.4124 34.2986L21.7065 34.0402L21.0282 33.1502L22.0721 34.1455L22.3608 34.2316L22.8178 34.3656L22.8467 34.2746L22.5821 34.2172H22.5484C22.5484 34.2172 22.5484 34.1837 22.5484 34.1694C22.5745 33.9875 22.5497 33.8019 22.4767 33.6331C22.4037 33.4643 22.2854 33.3187 22.1347 33.2124C21.8819 33.0131 21.5903 32.8681 21.2783 32.7865C20.2488 32.4851 18.7959 33.1885 18.7959 33.1885L19.3828 33.3607L19.1134 33.4947Z" fill="white"/>
<path d="M22.8328 34.2888L22.804 34.3797L22.3469 34.2458L22.0583 34.1596L21.0143 33.1644L21.6926 34.0544L20.3985 34.3127L21.3607 33.9587L21.0913 33.8773L20.3311 33.1548L20.8122 33.8008L19.85 33.9874L20.5476 33.729L20.2638 33.6476L19.7827 33.1691L20.0906 33.5759H20.0473L19.4604 33.6955L19.8933 33.5328L19.5951 33.4467L19.316 33.1787L19.494 33.418H19.4411L19.0947 33.4897L19.3545 33.394L18.7676 33.2218C18.7676 33.2218 19.6095 34.5951 20.639 34.8965C21.6686 35.198 22.2699 34.8965 22.472 34.3749L22.6308 34.4371L22.7607 34.4802L22.8328 34.2888Z" fill="white"/>
<path d="M63.4658 58.7256L62.9414 58.9888C63.3407 59.1802 63.7448 59.3715 64.1489 59.5486H64.1971C63.8907 59.3363 63.64 59.0541 63.4658 58.7256Z" fill="white"/>
<path d="M34.0324 25.5466C33.965 25.4317 33.9025 25.3121 33.8448 25.1973C33.8308 25.2896 33.8099 25.3808 33.7822 25.47L34.0324 25.5466Z" fill="white"/>
<path d="M77.2399 35.729L77.0859 36.1262C77.3553 36.0113 77.6248 35.9108 77.899 35.8103C77.6759 35.8388 77.4492 35.8108 77.2399 35.729Z" fill="white"/>
<path d="M54.2051 11.3018C54.2532 11.4932 54.2869 11.6893 54.3302 11.8807L54.5226 11.6798C54.4 11.5687 54.2932 11.4415 54.2051 11.3018Z" fill="white"/>
<path d="M68.1085 20.6471L68.0508 20.8098C68.097 20.73 68.1485 20.6532 68.2047 20.5801C68.1837 20.5799 68.1631 20.5862 68.1458 20.5982C68.1286 20.6103 68.1155 20.6273 68.1085 20.6471Z" fill="white"/>
<path d="M49.9034 68.8455C50.4566 67.0177 49.9034 65.0176 50.5913 63.0653C51.2841 61.3858 51.9288 59.9599 53.959 59.601C54.7817 59.4575 55.5081 58.8306 56.2971 58.4526C56.6531 58.2804 57.0861 58.0028 57.4229 58.0746C59.15 58.4574 60.8771 58.8881 62.5706 59.3953C63.8358 59.7781 65.0193 60.4288 66.2942 60.7398C67.6813 61.054 69.0928 61.2493 70.5134 61.3236C71.1037 61.3538 71.6954 61.3411 72.2838 61.2853C72.311 61.2798 72.3355 61.2652 72.353 61.2438C72.3706 61.2224 72.3802 61.1957 72.3802 61.1681C72.3802 61.1405 72.3706 61.1137 72.353 61.0924C72.3355 61.071 72.311 61.0563 72.2838 61.0508C71.6921 61.0221 71.1051 61.0221 70.523 60.9743C69.5217 60.8741 68.5283 60.7062 67.5499 60.4719C66.9533 60.3379 66.3471 60.2231 65.7506 60.0747C65.1917 60.0558 64.6497 59.8799 64.187 59.5675H64.1389C63.7348 59.3905 63.3307 59.1991 62.9314 59.0077L62.7534 59.0938L62.6668 58.8785C61.3534 58.2325 60.0352 57.5148 58.5582 56.7635C58.5392 56.7533 58.5232 56.7381 58.5121 56.7196C58.501 56.701 58.4951 56.6799 58.4951 56.6583C58.4951 56.6367 58.501 56.6155 58.5121 56.597C58.5232 56.5785 58.5392 56.5633 58.5582 56.553C61.9259 54.9357 65.231 53.1126 68.7334 51.7681C70.6914 51.0312 72.9044 51.036 74.5065 53.2514C75.613 54.7874 77.7875 54.8879 79.4425 53.8352C79.4706 53.8225 79.4924 53.7992 79.5032 53.7705C79.5141 53.7418 79.513 53.71 79.5002 53.682C79.4875 53.6541 79.4641 53.6324 79.4352 53.6216C79.4063 53.6109 79.3743 53.6119 79.3463 53.6246C76.4597 54.3806 75.0982 53.8687 74.4824 52.2753C74.4723 52.2578 74.467 52.238 74.467 52.2179C74.467 52.1977 74.4723 52.1779 74.4824 52.1604C75.8343 50.5575 76.9456 49.1124 78.2157 47.8205C78.8219 47.1985 79.7119 46.5525 80.5153 46.4999C82.1318 46.3946 83.7723 46.7056 85.4032 46.8013C85.995 46.8348 86.5915 46.83 87.2603 46.8013C87.2909 46.8045 87.3215 46.7954 87.3454 46.7761C87.3693 46.7568 87.3846 46.7289 87.3877 46.6984C87.3909 46.668 87.3818 46.6375 87.3624 46.6137C87.343 46.5899 87.3149 46.5748 87.2843 46.5716L83.7483 45.8108C81.16 45.2558 78.9807 45.7295 77.2487 47.9545C76.3972 49.0407 75.1992 49.8685 74.1072 50.7489C73.9537 50.8601 73.7786 50.9383 73.5931 50.9787C73.4076 51.019 73.2157 51.0206 73.0295 50.9833C72.5675 50.8677 72.0982 50.783 71.6247 50.7297L71.5478 50.8685L71.3794 50.7585L71.2832 50.6962C68.7911 50.5144 66.4722 51.3183 64.2159 52.4906C63.5231 52.8447 62.8111 53.1509 61.9115 53.5624C61.8877 53.5742 61.8605 53.5774 61.8346 53.5716C61.8087 53.5658 61.7856 53.5512 61.7692 53.5304C61.7528 53.5096 61.7441 53.4838 61.7446 53.4574C61.7451 53.431 61.7548 53.4056 61.7719 53.3854C62.7005 52.2083 63.451 51.2369 64.2303 50.2943C65.9142 48.2464 67.8241 46.342 69.2578 44.1313C70.3739 42.4135 71.7739 41.1359 73.6309 40.9015C76.7694 40.4539 79.7841 39.378 82.4926 37.7386C82.8216 37.5729 83.1709 37.4506 83.5318 37.375C84.5832 37.0495 85.6552 36.7937 86.7407 36.6094C87.8328 36.5352 88.9284 36.5256 90.0217 36.5807C86.7792 36.0208 83.5606 36.3366 80.8425 38.1119C78.1243 39.8871 74.8962 39.6478 71.923 40.4182C71.8995 40.4226 71.8752 40.4198 71.8532 40.4104C71.8313 40.4009 71.8126 40.3852 71.7997 40.3652C71.7868 40.3451 71.7802 40.3217 71.7807 40.2979C71.7813 40.2741 71.7889 40.251 71.8027 40.2316C72.0365 39.9154 72.3171 39.6363 72.635 39.4038C73.4625 38.8248 74.4199 38.4133 75.1608 37.7482C76.2438 36.7548 77.6107 36.121 79.0721 35.9347C80.7039 35.6839 82.2269 34.9656 83.4548 33.8676C83.4803 33.8505 83.498 33.824 83.5038 33.7939C83.5097 33.7639 83.5033 33.7327 83.4861 33.7073C83.4689 33.6819 83.4422 33.6644 83.412 33.6586C83.3818 33.6527 83.3504 33.6591 83.3249 33.6762C82.2851 34.2815 81.1774 34.7633 80.0246 35.1117C79.481 35.2361 78.9566 35.3892 78.4418 35.5567C78.2641 35.6608 78.0682 35.7306 77.8645 35.7625C77.5903 35.8629 77.3209 35.9634 77.0515 36.0783C76.1133 36.4706 75.1944 36.9252 74.2611 37.4276C71.4948 38.9157 70.0323 41.3178 68.2475 43.648C65.6399 47.031 62.6764 50.146 59.862 53.371C59.8404 53.3889 59.8132 53.3987 59.785 53.3987C59.7569 53.3987 59.7297 53.3889 59.7081 53.371C59.5637 53.2705 59.4194 53.1701 59.2703 53.0744C59.2474 53.058 59.231 53.0342 59.224 53.0071C59.217 52.98 59.2197 52.9513 59.2318 52.926C60.1603 51.0503 60.8675 49.0167 62.0847 47.3564C64.7066 43.7677 67.4055 40.2651 69.3011 36.1979C71.7835 30.8244 73.9869 25.4748 78.8267 21.4794C79.404 21.0344 77.446 21.9292 75.8295 23.1733C75.8106 23.1861 75.7885 23.1933 75.7656 23.1941C75.7428 23.1949 75.7202 23.1891 75.7005 23.1776C75.6808 23.166 75.6648 23.1491 75.6545 23.1289C75.6441 23.1086 75.6397 23.0859 75.6419 23.0632C75.8182 22.234 75.91 21.3891 75.9161 20.5416C75.8029 19.7967 75.6127 19.0656 75.3484 18.3596C75.343 18.3338 75.3288 18.3106 75.3082 18.2939C75.2876 18.2772 75.2619 18.2681 75.2353 18.2681C75.2088 18.2681 75.183 18.2772 75.1625 18.2939C75.1419 18.3106 75.1277 18.3338 75.1223 18.3596C75.0887 18.5457 75.0969 18.7369 75.1463 18.9195C75.6357 21.1092 75.3092 23.4012 74.2274 25.3696C73.2909 27.0347 72.3736 28.7142 71.4756 30.4081C70.5776 32.102 69.6939 33.8182 68.8248 35.5567C66.6412 39.8463 63.8263 43.7879 60.473 47.2511C60.4577 47.2683 60.4376 47.2806 60.4152 47.2864C60.3928 47.2922 60.3693 47.2911 60.3475 47.2834C60.3257 47.2756 60.3068 47.2616 60.2931 47.243C60.2795 47.2245 60.2718 47.2023 60.2709 47.1793C60.1747 45.4376 60.1074 44.0739 61.5362 42.782C63.4477 40.9444 65.2167 38.9658 66.8282 36.863C67.537 35.9639 67.9079 34.847 67.877 33.7049C67.8802 33.6762 67.8725 33.6473 67.8552 33.6241C67.838 33.6008 67.8125 33.5848 67.784 33.5794C67.7554 33.574 67.7259 33.5794 67.7012 33.5947C67.6765 33.61 67.6586 33.634 67.6509 33.6619C67.1698 34.8677 66.7801 36.1357 66.02 37.107C65.8324 37.3463 65.6351 37.5855 65.4379 37.8104L65.4138 37.8918H65.3801C64.1177 39.377 62.7478 40.7683 61.2812 42.0546C60.0833 43.1121 59.2991 44.3323 59.3136 45.8204C59.3472 48.567 58.2744 50.9403 57.3892 53.4428C56.427 56.1415 54.2621 57.132 51.948 57.955C50.4182 58.4957 49.7446 57.8545 49.7494 56.1654C49.7494 54.2945 49.9804 52.414 49.8889 50.5479C49.848 50.097 49.9259 49.6432 50.1149 49.2312C50.3038 48.8193 50.5974 48.4634 50.9666 48.1985C51.8205 47.5894 52.6249 46.9142 53.3721 46.1793C55.181 44.1217 57.3074 42.136 57.4325 39.1885C57.5768 35.9251 59.4627 34.0399 62.1472 32.8484C63.1449 32.4309 64.0447 31.8123 64.79 31.0316C65.5352 30.2508 66.1096 29.3249 66.477 28.3123C67.1506 26.5849 67.6076 24.7667 69.2241 23.5848C69.2577 23.5462 69.2765 23.4971 69.277 23.446C69.2865 23.4221 69.2877 23.3958 69.2804 23.3711C69.273 23.3465 69.2576 23.325 69.2365 23.3101C69.2155 23.2953 69.19 23.2878 69.1642 23.289C69.1384 23.2903 69.1137 23.3 69.0942 23.3168C68.7622 23.5944 67.9636 24.4748 67.6798 24.2977C67.8289 23.6757 67.9588 22.8336 68.0935 22.0488L67.9155 22.2067L67.8578 22.1302L67.8 22.0584L68.055 21.8861C67.932 21.7051 67.8806 21.4853 67.9107 21.2689C67.7488 21.7824 67.6171 22.3048 67.5162 22.8336C66.6117 27.4462 65.5533 31.9249 59.8187 33.1164C59.8013 33.1231 59.7826 33.1258 59.7641 33.1241C59.7455 33.1224 59.7276 33.1165 59.7117 33.1068C59.6958 33.097 59.6825 33.0837 59.6727 33.068C59.6628 33.0522 59.6568 33.0344 59.6551 33.0159C59.7449 32.1291 59.8347 31.2471 59.9245 30.3698C59.9278 30.3411 59.92 30.3122 59.9027 30.289C59.8855 30.2657 59.8601 30.2497 59.8315 30.2443C59.803 30.2389 59.7734 30.2443 59.7487 30.2596C59.7241 30.2749 59.7061 30.2989 59.6984 30.3268C59.4771 31.1067 59.328 31.9106 59.1404 32.7192C58.9523 33.3743 58.7143 34.0141 58.4283 34.6332C57.9473 35.8294 57.0957 36.9874 56.9851 38.2171C56.8167 39.8201 56.5954 41.3608 55.5418 42.5619C53.8676 44.5045 52.025 46.3085 50.1584 48.2655C50.1447 48.2788 50.1281 48.2886 50.1099 48.2943C50.0916 48.2999 50.0723 48.3011 50.0535 48.2978C50.0347 48.2946 50.0169 48.2869 50.0017 48.2754C49.9865 48.264 49.9742 48.2491 49.9659 48.232C48.946 45.897 49.1914 44.0213 50.3316 42.1599C51.5639 40.231 52.6882 38.2358 53.6992 36.1835C54.3435 34.9294 54.6736 33.539 54.6614 32.1307C54.6614 31.9919 54.6614 31.8627 54.6614 31.7288C54.5866 31.4927 54.6003 31.2378 54.6999 31.011C54.8875 29.5181 55.715 28.5085 57.0524 27.5754C57.8759 26.9414 58.5356 26.1212 58.9768 25.183C59.4529 24.2414 59.7358 23.215 59.8091 22.1637C59.9101 20.288 61.0214 19.1826 62.3877 18.1778C62.4139 18.1613 62.4324 18.1352 62.4392 18.1051C62.4459 18.075 62.4404 18.0435 62.4238 18.0175C62.4072 17.9915 62.3809 17.9731 62.3507 17.9664C62.3205 17.9596 62.2888 17.9651 62.2627 17.9816C60.7857 18.7233 59.5349 19.6707 59.3761 21.6565C59.1259 24.671 57.6682 26.8912 54.5652 28.3554C54.5442 28.3645 54.521 28.3675 54.4983 28.364C54.4757 28.3605 54.4545 28.3506 54.4373 28.3355C54.4202 28.3204 54.4077 28.3008 54.4013 28.2788C54.395 28.2569 54.3951 28.2337 54.4016 28.2118C55.1281 26.2021 55.7775 24.4556 56.3885 22.6948C57.062 20.7808 57.8703 18.8668 58.2792 16.8667C58.3666 16.2842 58.5705 15.725 58.8787 15.222C59.1868 14.7191 59.5932 14.2826 60.0737 13.9384C60.5548 13.5891 61.0695 13.2541 61.5747 12.9239L61.4977 12.8426L61.3967 12.7421L61.7479 12.4455L61.719 12.412C59.7514 13.3163 58.1253 14.57 57.5431 17.0964C56.9792 19.3069 56.2375 21.4686 55.3253 23.5609C54.2236 26.2883 53.2614 28.9774 53.3239 32.0206C53.3817 34.6189 52.3618 36.9587 50.3219 38.9588C50.3078 38.9729 50.2903 38.9831 50.271 38.9885C50.2518 38.9938 50.2314 38.9941 50.212 38.9892C50.1926 38.9844 50.1748 38.9747 50.1604 38.9609C50.1459 38.9472 50.1353 38.93 50.1295 38.9109C49.6484 37.442 49.1673 36.1596 48.7536 34.8677C47.6942 31.7704 47.5804 28.4306 48.4264 25.2691C48.732 23.9331 49.5129 22.752 50.625 21.9436C53.5982 19.776 55.3542 16.8572 54.6325 13.0627C54.5844 12.8235 54.5315 12.5842 54.4786 12.3545V12.388L54.3246 12.2684L54.1707 12.144L54.4064 11.8904C54.3631 11.699 54.3294 11.5028 54.2813 11.3114C54.0667 10.9559 53.9675 10.5432 53.9975 10.1295C53.627 8.64621 53.2229 7.17245 52.8284 5.69869C52.8256 5.68361 52.8198 5.66923 52.8114 5.65638C52.8029 5.64353 52.792 5.63246 52.7793 5.62379C52.7666 5.61513 52.7522 5.60904 52.7371 5.60589C52.722 5.60273 52.7065 5.60256 52.6913 5.60538C52.6762 5.60821 52.6617 5.61398 52.6488 5.62236C52.6359 5.63075 52.6247 5.64158 52.616 5.65424C52.6073 5.66691 52.6012 5.68115 52.598 5.69617C52.5948 5.71118 52.5947 5.72667 52.5975 5.74175C52.7881 7.48278 53.1244 9.20495 53.603 10.8903C54.748 14.7757 53.9157 18.1012 50.9089 20.7186C49.497 21.8491 48.4168 23.3366 47.7818 25.0251C47.7725 25.0466 47.7571 25.065 47.7374 25.078C47.7178 25.0909 47.6947 25.0978 47.6711 25.0978C47.6475 25.0978 47.6245 25.0909 47.6048 25.078C47.5851 25.065 47.5697 25.0466 47.5605 25.0251C46.8773 23.2929 46.3192 21.6756 46.6752 20.0679C46.9217 19.0873 46.9184 18.061 46.6656 17.0821C46.4735 16.4766 46.3729 15.846 46.3673 15.2111L46.2567 15.2351V15.1442V15.0485H46.3962C46.4243 14.2147 46.5371 13.3858 46.733 12.5746C47.4354 9.41659 46.5309 6.83272 44.9722 4.44025L44.6643 4.55509L44.5392 4.30627L44.467 4.07181L44.6498 4.03353C44.2602 3.47848 43.8176 2.92343 43.3605 2.3923C43.3403 2.37204 43.3135 2.35963 43.2849 2.35733C43.2563 2.35502 43.2278 2.36296 43.2045 2.37971C43.1813 2.39646 43.1649 2.42092 43.1582 2.44868C43.1515 2.47644 43.155 2.50565 43.1681 2.53106C45.511 6.0767 47.4209 9.74196 45.5447 14.3546C45.533 14.3814 45.5118 14.403 45.4853 14.4153C45.4587 14.4276 45.4285 14.4299 45.4003 14.4216C42.2396 13.5173 41.0705 12.0579 40.9358 8.88546C40.922 7.45408 40.5606 6.04724 39.8822 4.78477C39.8707 4.75621 39.8483 4.73337 39.8199 4.72125C39.7915 4.70914 39.7594 4.70875 39.7307 4.72017C39.702 4.73159 39.679 4.75389 39.6668 4.78215C39.6546 4.81042 39.6542 4.84234 39.6657 4.8709C39.8485 5.53122 40.0554 6.19632 40.2094 6.85664L40.3729 6.90928L40.2767 7.1581C40.3764 7.6364 40.4216 8.12435 40.4114 8.61272C40.3104 11.8138 41.9269 13.6225 44.621 14.881C44.8636 15.0087 45.0753 15.1874 45.2415 15.4047C45.4077 15.6221 45.5242 15.8728 45.5832 16.1394C45.7131 17.5271 45.6409 18.9338 45.6409 20.331C45.6409 20.8813 45.4918 21.4794 45.6409 21.9675C46.4971 24.6414 46.9732 27.4212 47.0553 30.2263C46.987 31.2893 47.0208 32.3564 47.1563 33.4131C47.3776 34.6045 47.6663 35.8055 47.9646 37.0161C48.4457 39.0354 46.5694 39.8488 47.368 42.8155C48.4409 46.7822 47.368 50.9498 47.2285 53.6964C47.1775 54.9285 46.9239 56.144 46.478 57.2947C46.4709 57.3184 46.4563 57.3392 46.4363 57.3539C46.4164 57.3687 46.3922 57.3767 46.3673 57.3767C46.3425 57.3767 46.3183 57.3687 46.2983 57.3539C46.2784 57.3392 46.2638 57.3184 46.2567 57.2947C45.8153 56.1427 45.5619 54.9279 45.5062 53.6964C45.3859 50.9738 45.5399 48.2416 45.5062 45.5094C45.5554 44.6473 45.4022 43.7856 45.0588 42.9925C43.9571 41.002 44.2746 39.0354 44.7749 37.0161C45.0732 35.8199 45.3619 34.6236 45.5832 33.4131C45.9921 31.2598 45.3763 26.183 45.3522 25.9725C44.7701 23.58 43.5433 22.0967 41.9413 20.709C41.7633 20.6038 38.8142 18.7951 38.285 14.3307C38.2795 14.3037 38.2647 14.2794 38.2432 14.2619C38.2217 14.2444 38.1949 14.2349 38.1671 14.2349C38.1394 14.2349 38.1125 14.2444 38.091 14.2619C38.0695 14.2794 38.0548 14.3037 38.0492 14.3307C37.9049 17.5079 39.5791 20.0104 42.2107 21.9292C43.3216 22.7389 44.1021 23.9194 44.4093 25.2547C44.4574 25.4366 44.5055 25.6136 44.544 25.7906H44.7412V25.9773H44.5777C45.2285 28.9327 45.0623 32.0083 44.0966 34.8772C43.6828 36.1692 43.221 37.4515 42.7159 38.9205C42.7101 38.9396 42.6994 38.9568 42.685 38.9705C42.6705 38.9842 42.6527 38.994 42.6333 38.9988C42.6139 39.0036 42.5936 39.0034 42.5743 38.998C42.555 38.9927 42.5375 38.9825 42.5234 38.9684C41.5594 38.0878 40.7935 37.0145 40.2762 35.8187C39.7588 34.6229 39.5016 33.3318 39.5214 32.0302C39.5839 28.987 38.6217 26.2883 37.52 23.5704C36.6121 21.4766 35.8705 19.3151 35.3022 17.106C34.6383 14.2733 32.7139 13.0388 30.4239 12.1009C30.3965 12.087 30.3646 12.0844 30.3353 12.0939C30.306 12.1033 30.2816 12.1239 30.2676 12.1512C30.2535 12.1785 30.251 12.2102 30.2604 12.2393C30.2699 12.2685 30.2906 12.2927 30.3181 12.3067C31.1359 12.8378 31.9586 13.3642 32.7524 13.9288C33.2335 14.2725 33.6402 14.7088 33.9485 15.2118C34.2568 15.7149 34.4603 16.2744 34.5469 16.8572C34.9558 18.8429 35.7689 20.7521 36.4376 22.6852C37.0534 24.4461 37.6981 26.1926 38.4245 28.2023C38.4326 28.2238 38.4341 28.2472 38.4286 28.2696C38.4232 28.2919 38.4112 28.3121 38.3941 28.3276C38.377 28.343 38.3556 28.353 38.3327 28.3563C38.3098 28.3595 38.2865 28.3559 38.2657 28.3458C35.1194 26.8768 33.6761 24.6566 33.4259 21.6421C33.2576 19.6564 31.9827 18.7089 30.5394 17.9673C30.5132 17.9514 30.4818 17.9465 30.452 17.9537C30.4223 17.9609 30.3966 17.9795 30.3806 18.0056C30.3647 18.0316 30.3598 18.0628 30.367 18.0924C30.3742 18.122 30.393 18.1476 30.4191 18.1635C31.7854 19.1683 32.9016 20.2736 33.0026 22.1493C33.0303 22.6527 33.1125 23.1516 33.2479 23.6374C33.4613 23.8335 33.6265 24.0757 33.7307 24.3453C33.835 24.615 33.8756 24.9048 33.8493 25.1925C33.907 25.3074 33.9696 25.427 34.0369 25.5418L34.316 25.628L34.2246 25.8576C34.6224 26.512 35.1435 27.0839 35.7592 27.5419C37.4046 28.6903 38.2802 29.9344 38.1358 32.0972C38.1237 33.5055 38.4537 34.8959 39.098 36.15C40.1073 38.2033 41.2316 40.1985 42.4657 42.1264C43.6011 43.9878 43.8464 45.8635 42.8265 48.1985C42.8182 48.2156 42.8059 48.2305 42.7907 48.2419C42.7755 48.2534 42.7577 48.2611 42.7389 48.2643C42.7201 48.2676 42.7008 48.2664 42.6826 48.2608C42.6643 48.2551 42.6477 48.2453 42.6341 48.232C40.7674 46.275 38.9296 44.471 37.2506 42.5284C36.2115 41.3273 35.9902 39.7866 35.8074 38.1836C35.6775 36.9539 34.8452 35.7912 34.3641 34.5997C34.0761 33.9815 33.838 33.3415 33.6521 32.6857C33.4596 31.901 33.3153 31.0971 33.094 30.2933C33.0882 30.2628 33.0706 30.2359 33.0449 30.2184C33.0191 30.2009 32.9875 30.1943 32.9569 30.2C32.9263 30.2057 32.8992 30.2233 32.8816 30.2488C32.864 30.2744 32.8573 30.3059 32.8631 30.3363C32.9545 31.2168 33.0411 32.0972 33.1325 32.9824C33.1344 33.0005 33.132 33.0188 33.1255 33.0358C33.1189 33.0528 33.1084 33.068 33.0947 33.0801C33.0811 33.0923 33.0648 33.1011 33.0471 33.1057C33.0294 33.1103 33.0108 33.1107 32.993 33.1068C27.2198 31.9106 26.1759 27.4367 25.2955 22.824C25.1575 22.0728 24.9497 21.3359 24.6749 20.6229C24.6659 20.5937 24.6457 20.5693 24.6186 20.5549C24.5916 20.5405 24.5599 20.5375 24.5305 20.5464C24.5012 20.5552 24.4766 20.5753 24.4622 20.6023C24.4477 20.6292 24.4446 20.6607 24.4536 20.6899C24.6941 21.7043 24.9379 22.7155 25.1848 23.7236L24.6219 24.0681L23.7175 23.3073C23.6973 23.2922 23.6728 23.2838 23.6476 23.2834C23.6224 23.2829 23.5976 23.2903 23.5769 23.3046C23.5561 23.3189 23.5404 23.3393 23.532 23.363C23.5235 23.3867 23.5228 23.4124 23.5299 23.4365C23.5401 23.4805 23.5657 23.5194 23.602 23.5465C25.2185 24.7284 25.6707 26.5467 26.3443 28.274C26.7124 29.2862 27.2871 30.2117 28.0323 30.9924C28.7774 31.773 29.6769 32.3919 30.6741 32.8101C33.0796 33.8628 34.8067 35.4706 35.2733 38.0736L35.4225 38.1214L35.3503 38.3033L35.3214 38.3846C35.3503 38.6238 35.3792 38.8631 35.3888 39.1311C35.5043 42.1073 37.6259 44.1074 39.4492 46.1649C40.1985 46.8975 41.0027 47.5726 41.8547 48.1842C41.9365 48.2511 42.0086 48.3181 42.0808 48.3851L42.2877 48.2751L42.3502 48.4138L42.4128 48.5478L42.2829 48.5957C42.5195 48.852 42.6999 49.1546 42.8125 49.4842C42.9252 49.8137 42.9676 50.1629 42.9372 50.5096C42.8409 52.3758 43.0622 54.2562 43.0719 56.1272C43.0719 57.8162 42.4031 58.4574 40.8781 57.9167C38.564 57.0937 36.4087 56.1032 35.4369 53.4045C34.5325 50.902 33.4596 48.5287 33.5125 45.7821C33.5125 44.294 32.7428 43.0738 31.5497 42.0164C29.8205 40.5193 28.2327 38.868 26.8061 37.0831C26.046 36.1261 25.6707 34.8438 25.18 33.6379C25.1723 33.6101 25.1544 33.5861 25.1297 33.5708C25.105 33.5555 25.0755 33.55 25.0469 33.5555C25.0184 33.5609 24.9929 33.5769 24.9757 33.6001C24.9585 33.6234 24.9507 33.6523 24.9539 33.681C24.9122 34.8222 25.2749 35.9416 25.9786 36.8439C27.6528 38.8918 29.3126 40.9972 31.2706 42.7628C32.7139 44.0548 32.6321 45.4185 32.5407 47.1602C32.5387 47.1831 32.53 47.2049 32.5158 47.223C32.5016 47.2411 32.4824 47.2548 32.4606 47.2624C32.4387 47.27 32.4152 47.2711 32.3927 47.2657C32.3702 47.2603 32.3498 47.2486 32.3339 47.232C28.9809 43.7987 26.1582 39.89 23.958 35.6333C22.2309 32.1977 20.4412 28.7956 18.5505 25.4461C17.4734 23.4763 17.1471 21.186 17.6317 18.996C17.6827 18.8138 17.6925 18.6226 17.6605 18.4362C17.6551 18.4103 17.6409 18.3871 17.6204 18.3704C17.5998 18.3538 17.574 18.3447 17.5475 18.3447C17.5209 18.3447 17.4952 18.3538 17.4746 18.3704C17.454 18.3871 17.4398 18.4103 17.4344 18.4362C17.3141 18.8238 17.1794 19.2114 17.0688 19.5989L17.3189 19.5224L17.3622 19.7712L16.9918 19.8143L16.9629 19.9195C16.9683 20.0833 16.9388 20.2464 16.8763 20.398C16.8763 20.4698 16.8763 20.5416 16.8475 20.6086C16.8517 21.456 16.9419 22.3008 17.1169 23.1302C17.1191 23.1529 17.1147 23.1756 17.1043 23.1959C17.0939 23.2161 17.0779 23.233 17.0583 23.2446C17.0386 23.2561 17.016 23.2618 16.9931 23.2611C16.9703 23.2603 16.9481 23.2531 16.9293 23.2403L14.8173 21.599H14.7451C18.3485 24.8002 20.2632 29.0061 22.1299 33.2312C22.2806 33.3375 22.3989 33.4831 22.4719 33.6519C22.5449 33.8207 22.5697 34.0063 22.5436 34.1882L22.5725 34.2456L22.8371 34.3031L22.7842 34.4801L22.6543 34.437C22.9285 35.0543 23.2027 35.6668 23.4866 36.2792C25.3676 40.3464 28.0714 43.849 30.703 47.4377C31.9201 49.0981 32.6273 51.1317 33.551 53.0074C33.5631 53.0327 33.5658 53.0614 33.5588 53.0885C33.5518 53.1156 33.5354 53.1394 33.5125 53.1557L33.0747 53.4524C33.0531 53.4703 33.0259 53.4801 32.9978 53.4801C32.9696 53.4801 32.9424 53.4703 32.9208 53.4524C30.1064 50.2273 27.1477 47.1123 24.5402 43.7294C22.7505 41.4087 21.2928 39.0066 18.5217 37.509C17.6317 37.0305 16.7513 36.5902 15.8516 36.2122L15.9911 36.6572H15.943C16.5446 36.9537 17.1016 37.3321 17.598 37.7817C18.3341 38.4468 19.2962 38.8583 20.1189 39.4373C20.438 39.6684 20.7188 39.9477 20.9512 40.2651C20.9682 40.2838 20.9786 40.3075 20.9807 40.3327C20.9828 40.3578 20.9765 40.3829 20.9628 40.4041C20.9491 40.4254 20.9288 40.4415 20.905 40.4501C20.8811 40.4587 20.8551 40.4593 20.8309 40.4517C17.8578 39.6813 14.6922 39.9732 11.9163 38.1454C9.14037 36.3175 5.96034 36.0448 2.71777 36.6046C3.81106 36.5495 4.90668 36.5591 5.99883 36.6333C7.08577 36.8182 8.15932 37.0739 9.21253 37.3989C9.57183 37.4746 9.91959 37.5968 10.2469 37.7626C12.9571 39.402 15.9734 40.478 19.1134 40.9254C20.9656 41.1599 22.3656 42.4374 23.4817 44.1552C24.925 46.3659 26.8253 48.2703 28.514 50.3182C29.2934 51.2752 30.0439 52.2322 30.9724 53.4093C30.9895 53.4295 30.9992 53.4549 30.9997 53.4813C31.0002 53.5078 30.9915 53.5336 30.9751 53.5544C30.9587 53.5752 30.9356 53.5897 30.9097 53.5955C30.8838 53.6014 30.8566 53.5981 30.8328 53.5863C29.9284 53.1748 29.2164 52.8686 28.5284 52.5145C25.7477 51.079 22.8852 50.189 19.71 51.0073C19.5238 51.0445 19.3319 51.0429 19.1464 51.0026C18.9609 50.9622 18.7858 50.884 18.6323 50.7728C17.5451 49.8876 16.3423 49.0646 15.4956 47.9784C14.6775 46.8452 13.4683 46.0514 12.0991 45.7486L11.7623 45.9496L11.6084 45.6481C10.7282 45.5551 9.83859 45.6101 8.97679 45.8108L5.44076 46.5716C5.41014 46.5748 5.38204 46.5899 5.36264 46.6137C5.34324 46.6375 5.33414 46.668 5.33733 46.6984C5.34051 46.7289 5.35574 46.7568 5.37965 46.7761C5.40356 46.7954 5.43419 46.8045 5.46481 46.8013C6.13353 46.8013 6.73009 46.8013 7.32183 46.8013C8.95755 46.7056 10.5981 46.3946 12.2146 46.4999C13.0132 46.5525 13.908 47.1985 14.5142 47.8205C14.8702 48.1794 15.2118 48.5574 15.5485 48.945C15.7551 49.0211 15.9383 49.1493 16.08 49.3171C16.2217 49.4849 16.3171 49.6864 16.3568 49.9019C16.4434 50.0072 16.5348 50.1221 16.6262 50.2273C17.1361 50.8446 17.6605 51.481 18.2282 52.1413C18.2383 52.1588 18.2437 52.1786 18.2437 52.1987C18.2437 52.2189 18.2383 52.2387 18.2282 52.2561C17.6124 53.8495 16.2509 54.3615 13.3644 53.6055C13.3367 53.5954 13.3061 53.5962 13.279 53.6077C13.2518 53.6193 13.2302 53.6408 13.2185 53.6677C13.2068 53.6947 13.2059 53.7251 13.216 53.7527C13.2262 53.7802 13.2465 53.8029 13.273 53.816C14.9231 54.8687 17.1217 54.773 18.2042 53.2323C19.8014 51.0168 22.0192 51.0121 23.9773 51.7489C27.4796 53.0696 30.7896 54.8926 34.1572 56.5339C34.1763 56.5441 34.1922 56.5593 34.2034 56.5779C34.2145 56.5964 34.2204 56.6176 34.2204 56.6391C34.2204 56.6607 34.2145 56.6819 34.2034 56.7004C34.1922 56.719 34.1763 56.7342 34.1572 56.7444C32.1318 57.7827 30.3902 58.7493 28.5765 59.5484C27.4736 59.9644 26.333 60.2737 25.1704 60.4719C24.1918 60.7055 23.1985 60.8733 22.1972 60.9743C21.6151 61.0221 21.0282 61.0221 20.4364 61.0508C20.4092 61.0563 20.3848 61.071 20.3672 61.0924C20.3497 61.1137 20.3401 61.1405 20.3401 61.1681C20.3401 61.1957 20.3497 61.2224 20.3672 61.2438C20.3848 61.2652 20.4092 61.2798 20.4364 61.2853C21.0248 61.3411 21.6166 61.3538 22.2069 61.3236C23.6388 61.2516 25.0617 61.0563 26.4597 60.7398C27.7346 60.4288 28.9229 59.7828 30.1834 59.3953C31.8816 58.8881 33.6039 58.4383 35.3359 58.0746C35.6678 58.0028 36.1008 58.2804 36.4616 58.4526C37.2458 58.8306 37.9771 59.4575 38.7949 59.601C40.8348 59.9599 41.4842 61.3858 42.1626 63.0701C42.7976 64.9171 42.4224 66.7641 42.7736 68.5154C42.7736 68.6254 45.179 69.3001 46.3144 69.0178" fill="white"/>
<path d="M61.6328 12.8474L61.9215 12.6561L61.8541 12.5986L61.6328 12.8474Z" fill="white"/>
<path d="M54.8442 49.1845L55.2147 49.3089L55.5274 49.2563L55.1954 49.596L55.6765 49.2324H55.7198L55.2387 48.9931L55.869 49.2037L56.1672 49.1558L55.6428 49.6917L56.4222 49.1175L55.691 48.7395L56.7012 49.0745L56.9803 49.0314L56.2875 49.7635L57.3603 48.9692L56.3549 48.4429L57.7452 48.9214L58.0435 48.8783L58.5246 48.8017V48.706L58.2215 48.7778C58.0868 48.218 57.4758 47.8591 56.4463 48.0218C55.4167 48.1845 54.3535 49.4573 54.3535 49.4573L55.1088 49.3377L54.8442 49.1845Z" fill="white"/>
<path d="M54.7627 49.5431L55.0514 49.3325L54.9599 49.3469L54.7627 49.5431Z" fill="white"/>
<path d="M58.5202 48.6865V48.7822L58.0391 48.8588L57.7408 48.9018L56.3505 48.4233L57.356 48.9497L56.2879 49.7631L57.0096 49.0262L56.7305 49.0693L55.7203 48.7344L56.4515 49.1124L55.6721 49.6866L56.1965 49.1507L55.8983 49.1985L55.268 48.988L55.7491 49.2272H55.7058L55.2247 49.5909L55.5567 49.2511L55.244 49.3038L54.8735 49.1794L55.1381 49.3181L54.3828 49.4377C54.3828 49.4377 55.7491 50.3325 56.822 50.1603C57.8948 49.988 58.323 49.4665 58.2652 48.8971L58.5731 48.8683L58.5202 48.6865ZM54.7629 49.543L54.9601 49.3468H55.0515L54.7629 49.543Z" fill="white"/>
<path d="M79.1492 30.8962V31.4225L79.1107 31.4943L79.51 31.2838L79.0289 31.6331L78.8268 32.0493L78.6921 31.3747L78.7258 32.2647L78.6969 32.3221L79.3705 31.968L78.6296 32.5374L78.4419 32.9346L78.2255 31.8532L78.2784 33.2886L79.3512 32.724L78.1004 33.681L77.9224 34.059L77.6241 32.5709L77.7011 34.5279L79.178 33.748L77.4557 35.0495L77.2633 35.4466L76.9746 36.0878L77.0997 36.1452L77.2536 35.7481C77.463 35.8299 77.6897 35.8579 77.9127 35.8294C78.1165 35.7976 78.3123 35.7278 78.49 35.6237C79.0107 35.2852 79.4165 34.7982 79.6543 34.2265C80.3375 32.791 79.6543 30.499 79.6543 30.499L79.2646 31.3125L79.1492 30.8962Z" fill="white"/>
<path d="M76.9751 36.0881L77.2782 35.4469L77.4706 35.0498L79.1929 33.7531L77.716 34.533L77.639 32.576L77.9373 34.0641L78.1153 33.6861L79.3661 32.7291L78.2933 33.2937L78.2404 31.8582L78.4569 32.9396L78.6445 32.5425L79.4287 31.9539L78.7551 32.308L78.784 32.2506L78.7503 31.3606L78.885 32.0353L79.0871 31.619L79.5682 31.2697L79.1689 31.4802L79.2074 31.4085V30.8821L79.2891 31.2793L79.6788 30.4658C79.6788 30.4658 77.4514 31.375 76.7682 32.8104C76.0851 34.2459 76.3641 35.2029 77.1002 35.624L76.8789 36.0116L77.1146 36.1216L76.9751 36.0881Z" fill="white"/>
<path d="M77.2246 21.7235L77.1861 22.0297H77.2824V21.5512V21.2497L78.0184 19.9865L77.3016 20.8622L76.7291 19.6611L77.316 20.5129V20.2306L77.8501 19.3118L77.3305 19.9482L76.9745 19.063L77.3978 19.6803V19.3836L77.7298 18.8094L77.4026 19.2066V19.1635L77.1428 18.618L77.4074 19.0056V18.6898L77.6047 18.3501L77.4123 18.5845V18.5319L77.2631 18.2065L77.4171 18.4362L77.4459 17.8237C77.4459 17.8237 76.2913 18.9769 76.248 20.0583C76.2047 21.1397 76.6521 21.6565 77.2246 21.7235Z" fill="white"/>
<path d="M77.2826 18.2065L77.4318 18.5319V18.5845L77.6242 18.3501L77.427 18.6898V19.0056L77.1624 18.618L77.4221 19.1635V19.2066L77.7493 18.8094L77.4173 19.3836V19.6803L76.9747 19.063L77.3885 19.9387L77.9081 19.3023L77.374 20.221V20.5033L76.7871 19.6516L77.3596 20.8526L78.0764 19.977L77.3404 21.2402V21.5416V22.0201H77.4366V21.7139C78.0139 21.7139 78.4902 21.1684 78.5335 20.1349C78.5768 19.1013 77.4558 17.8237 77.4558 17.8237V18.4362L77.2826 18.2065Z" fill="white"/>
<path d="M68.4064 26.1113L68.8297 26.3697V26.3266L68.8923 26.4319L68.9356 26.0156L68.9692 26.5563L69.2916 27.0874L69.1954 26.9343L68.5892 26.6855L69.3108 27.1257L69.3445 27.1783L69.4167 26.4654L69.4696 27.3841L69.6861 27.743L68.7239 27.3458L69.8737 28.0444L69.7246 27.7956L69.8881 28.0636L69.9988 26.9295L70.0902 28.3985L70.2922 28.7382L68.9596 28.1927L70.5472 29.1497L70.706 27.5803L70.8263 29.6091L71.0427 29.968L71.3939 30.5422L71.5046 30.4704L71.2592 30.1211C71.9087 29.6426 72.0579 28.6856 71.3122 27.4511C70.5665 26.2166 68.3486 25.5371 68.3486 25.5371L68.7912 26.2692L68.4064 26.1113Z" fill="white"/>
<path d="M71.3654 30.5519L71.0142 29.9777L70.7978 29.6189L70.6775 27.59L70.5187 29.1595L68.9311 28.2025L70.2637 28.748L70.0617 28.4083L69.9703 26.9393L69.8596 28.0733L69.696 27.8054L69.8452 28.0542L68.6954 27.3556L69.6576 27.7527L69.4411 27.3939L69.3881 26.4752L69.316 27.1881L69.2823 27.1355L68.5607 26.6953L69.1669 26.9441L69.2631 27.0972L68.9407 26.5661L68.9071 26.0254L68.8638 26.4417L68.7964 26.3172V26.3603L68.373 26.1019L68.7291 26.2455L68.3153 25.5229C68.3153 25.5229 67.8679 27.7432 68.6473 29.0351C69.4266 30.327 70.3359 30.5998 71.0527 30.2457L71.2452 30.6189L71.4665 30.4849L71.3654 30.5519Z" fill="white"/>
<path d="M27.6241 23.5799L28.2688 23.5082L28.365 23.5464L28.0715 23.0679L28.5526 23.5991L29.0866 23.8L28.264 24.0345L29.3464 23.9244L29.4234 23.9532L28.9423 23.1636L29.7409 24.068L30.2509 24.2642L28.9375 24.6326L30.6839 24.4317H30.7127L29.9141 23.1732L31.189 24.6087L31.8192 24.8479L31.6701 24.7905L29.8275 25.3073L32.233 25.0298L31.1313 23.2928L32.8921 25.2786L33.4069 25.4748L34.2247 25.7858L34.2873 25.6279L34.0082 25.5418L33.7581 25.4652C33.8609 25.1417 33.8645 24.7952 33.7686 24.4696C33.6726 24.1441 33.4814 23.8544 33.2192 23.6374C32.7714 23.2103 32.2365 22.8839 31.6509 22.6804C29.8083 21.977 27.042 23.0536 27.042 23.0536L28.086 23.4507L27.6241 23.5799Z" fill="white"/>
<path d="M34.2488 25.7905L33.431 25.4795L32.9162 25.2833L31.1554 23.2975L32.2571 25.0345L29.8516 25.312L31.6606 24.8048L31.8097 24.8622L31.1795 24.623L29.9046 23.1875L30.7032 24.4459H30.6743L28.9279 24.6469L30.2413 24.2785L29.7314 24.0823L28.9279 23.1588L29.409 23.9483L29.3465 23.9244L28.2496 24.0536L29.0723 23.8191L28.5383 23.6181L28.0572 23.087L28.3506 23.5655L28.2544 23.5272L27.6098 23.599L28.0908 23.465L27.0469 23.0679C27.0469 23.0679 28.3747 25.7092 30.2221 26.4173C31.9877 27.092 33.2193 26.6853 33.6667 25.7427L34.1478 25.9771L34.1815 25.8862L34.2729 25.6565L34.2488 25.7905Z" fill="white"/>
<path d="M60.4305 36.6766L60.9116 36.5714H60.8779L60.9838 36.6001L60.7336 36.2843L61.1185 36.6383L61.5274 36.7436L60.9453 36.9781L61.7343 36.7962H61.792L61.3638 36.2555L61.9989 36.8441L62.3886 36.9446L61.4553 37.3178L62.7205 37.0355L62.5185 36.9829L62.7398 37.0403L62.0614 36.2029L63.1054 37.1599L63.4758 37.2556L62.1913 37.7676L63.9329 37.3752L62.9707 36.1933L64.414 37.5044L64.8037 37.6097L65.4243 37.7724L65.4579 37.648L65.0538 37.5714C65.1933 36.825 64.6401 36.0546 63.2978 35.7005C61.9556 35.3464 59.9639 36.3369 59.9639 36.3369L60.7577 36.5474L60.4305 36.6766Z" fill="white"/>
<path d="M65.4282 37.8008V37.7577L64.8076 37.5951L64.4179 37.4898L62.9746 36.1787L63.9368 37.3606L62.1952 37.753L63.4798 37.241L63.1093 37.1453L62.0653 36.1883L62.7485 37.0448L62.5272 36.9874L62.7292 37.04L61.464 37.3223L62.3973 36.9491L62.0076 36.8486L61.3533 36.2505L61.7815 36.7912H61.7238L60.9348 36.973L61.5169 36.7385L61.108 36.6333L60.7231 36.2792L60.9733 36.595L60.8674 36.5663H60.9011L60.42 36.6716L60.7616 36.5376L59.9678 36.327C59.9678 36.327 61.1513 38.1501 62.5512 38.5185C63.9512 38.887 64.7547 38.4755 65.0096 37.753L65.3608 37.8726H65.3945L65.4282 37.8008Z" fill="white"/>
<path d="M36.6404 9.87585L36.1593 10.0481L35.8706 10.3543L35.938 9.73709L35.7119 10.5266L35.6734 10.5697L36.3517 10.4453L35.5146 10.7419L35.2404 11.0338L35.3511 10.0481L35.0047 11.2874L35.1057 11.1774L34.9902 11.3018L36.0823 11.0864L34.7449 11.5649L34.1579 12.163L34.4658 11.8329L34.639 10.4644L34.1579 12.1774L35.6493 11.9047L33.8067 12.5554L33.5325 12.8473L33.0947 13.3258L33.1958 13.3976L33.4555 13.077C34.0521 13.5555 34.995 13.4358 35.9428 12.4214C36.8905 11.407 36.9531 9.20117 36.9531 9.20117L36.2555 9.94284L36.6404 9.87585Z" fill="white"/>
<path d="M36.419 9.43604L36.2939 9.89539L36.3805 9.80448L36.419 9.43604Z" fill="white"/>
<path d="M33.195 13.3979L33.1036 13.3117L33.5414 12.8332L33.8157 12.5414L35.6582 11.8906L34.1668 12.1633L34.6479 10.4503L34.494 11.8188L34.1861 12.149L34.7538 11.5413L36.0912 11.0628L35.0088 11.259L35.1242 11.1346L35.0232 11.2446L35.3503 10.0484L35.2397 11.0054L35.5139 10.7135L36.351 10.4168L35.6727 10.5412L35.7112 10.4982L35.9276 9.72302L35.8603 10.3403L36.149 10.034L36.63 9.86179L36.2307 9.93356L36.9283 9.19189C36.9283 9.19189 34.7586 9.36415 33.7675 10.4216C32.7765 11.4791 32.7669 12.3739 33.2864 12.9337L32.9834 13.216L33.195 13.3979ZM36.4328 9.43114L36.3943 9.79958L36.3077 9.8905L36.4328 9.43114Z" fill="white"/>
<path d="M26.8644 55.314C24.7813 54.5054 21.6445 55.7064 21.6445 55.7064L22.828 56.1849L22.2748 56.338L23.006 56.2567L23.1119 56.2997L22.7847 55.7734L23.3139 56.3763L23.9201 56.6108L22.9868 56.8644L24.228 56.7304L24.3146 56.7639L23.7517 55.8691L24.6514 56.8931L25.2287 57.118L23.7373 57.5247L25.7194 57.3094H25.7483L24.8486 55.8739L26.2919 57.5151L27.2541 57.8979L26.8163 57.7256L24.762 58.2903L27.4946 57.9888L26.2534 56.0174L28.2403 58.2807L28.8176 58.5056L28.8657 58.3764L28.8224 58.496L29.7461 58.8549L29.8183 58.6731L29.2217 58.4865C29.5778 57.362 28.8657 56.0892 26.8644 55.314Z" fill="white"/>
<path d="M28.8369 58.496L28.8658 58.3763L28.8225 58.496L28.2452 58.2711L26.2583 56.0078L27.4995 57.9792L24.7669 58.2806L26.8212 57.716L27.259 57.8883L26.2968 57.5055L24.8535 55.8642L25.7531 57.2997H25.7243L23.7422 57.5151L25.2336 57.1083L24.6562 56.8834L23.7566 55.8595L24.3195 56.7542L24.2329 56.7208L22.9917 56.8547L23.925 56.6011L23.3188 56.3667L22.7896 55.7638L23.1167 56.2901L23.0109 56.247L22.2796 56.3284L22.8329 56.1753L21.6494 55.6968C21.6494 55.6968 23.1408 58.6921 25.2239 59.5247C27.2205 60.2999 28.5916 59.8453 29.1304 58.7831L29.6933 59.051L29.7655 58.8692L28.8369 58.496Z" fill="white"/>
<path d="M27.8557 35.8057L28.5822 35.7243L28.6928 35.7674L28.3849 35.2411L28.9141 35.844L29.5203 36.0784L28.587 36.3368L29.8282 36.1981L29.9148 36.2315L29.3471 35.3368L30.2275 36.3655L31.3244 36.7866L30.4296 35.3511L31.8729 36.9876L32.4165 37.1981L30.3574 37.7723L33.09 37.4708L31.8536 35.4947L33.8357 37.7579L34.413 37.9828L35.3367 38.3417L35.4089 38.1599L35.2598 38.112L34.8124 37.9733C35.1587 36.8488 34.4371 35.5808 32.4406 34.8009C30.3574 33.9922 27.2207 35.1932 27.2207 35.1932L28.4042 35.6717L27.8557 35.8057Z" fill="white"/>
<path d="M30.8049 36.5854L29.3135 36.9922L31.2956 36.7768L30.8049 36.5854Z" fill="white"/>
<path d="M34.4128 37.9874L33.8354 37.7625L31.8533 35.4992L33.0897 37.4754L30.3571 37.7768L32.4114 37.2122L31.8678 37.0017L30.4245 35.3652L31.3193 36.8007L30.2272 36.3653L29.3468 35.3365L29.9097 36.2313L29.8279 36.1978L28.5867 36.3366L29.52 36.0782L28.9139 35.8437L28.3847 35.2408L28.7166 35.7672L28.606 35.7241L27.8795 35.8054L28.3847 35.6523L27.2012 35.1738C27.2012 35.1738 28.6926 38.1692 30.7757 39.0018C32.7722 39.7769 34.1433 39.3224 34.6822 38.2601L35.245 38.5281L35.2883 38.4276L35.3172 38.3462L34.4128 37.9874ZM30.7901 36.5854L31.2712 36.7768L29.2891 36.9921L30.7901 36.5854Z" fill="white"/>
<path d="M54.2045 11.3018C54.2926 11.4415 54.3995 11.5687 54.5221 11.6798L54.3296 11.8808L54.0939 12.1344L54.2478 12.2588L54.8732 11.4884L55.2581 11.0099L58.0244 9.80888L55.7633 10.3879L56.3021 7.7083L56.2203 9.82324L56.5859 9.34475L58.5921 8.47867L56.9516 8.89975V8.87104L57.3413 6.92835L57.2835 8.46432L57.0189 8.78969L57.6684 7.98582L58.9289 7.44034L57.8993 7.70351L57.9571 7.63174L58.1976 6.41158L58.1639 7.36857L58.5729 6.86136L59.3089 6.54077L58.7076 6.69867L58.7749 6.60776L58.9192 5.89481V6.45943L58.8519 6.54077L59.713 5.47852C59.713 5.47852 56.3887 5.98572 54.9887 7.71787C54.3916 8.37635 54.018 9.20499 53.9207 10.0864C53.8836 10.5112 53.983 10.9367 54.2045 11.3018Z" fill="white"/>
<path d="M58.9195 6.49292V5.9283L58.7751 6.64126L58.7078 6.73217L59.3091 6.57427L58.5731 6.89486L58.1641 7.40206L58.1978 6.44507L57.9573 7.66523L57.8995 7.73701L58.9291 7.47384L57.6686 8.01932L57.0191 8.82319L57.2837 8.49781L57.3415 6.96185L56.9518 8.90453V8.93324L58.5923 8.51217L56.5862 9.37824L56.2205 9.85673L56.3023 7.74179L55.7635 10.4214L58.0246 9.84238L55.2583 11.0051L54.8735 11.4836L54.248 12.254L54.402 12.3736V12.3401L54.7339 11.8616C55.6961 12.5267 57.1394 12.2301 58.4913 10.5697C59.8961 8.83754 59.6892 5.50244 59.6892 5.50244L58.8281 6.5647L58.9195 6.49292Z" fill="white"/>
<path d="M54.6282 31.6999C54.6692 31.8115 54.7389 31.9105 54.8303 31.987L54.6763 32.1688L54.7918 32.255L54.7341 32.2119L54.9554 31.9104L55.0901 31.7286L56.11 31.2501L55.2681 31.5037L55.4268 30.4941V31.2884L55.5567 31.1114L56.2928 30.7525L55.6866 30.9391L55.8021 30.2022V30.7812L55.9368 30.5946L56.4179 30.3697L56.0378 30.4845V30.4558L56.11 29.9773V30.341L56.288 30.1448L56.5574 30.0108L56.3361 30.0778L56.3602 30.0443L56.4035 29.7764V29.9869L56.6873 29.6089C56.6873 29.6089 55.4509 29.8529 54.9506 30.5228C54.8417 30.6709 54.7513 30.8316 54.6812 31.0013C54.5815 31.2207 54.5627 31.4681 54.6282 31.6999Z" fill="white"/>
<path d="M56.3889 29.7672L56.3456 30.0351L56.3215 30.0686L56.5428 30.0016L56.2878 30.1452L56.1435 30.3414V29.9777L56.0713 30.4562V30.4849L56.4514 30.3701L55.9703 30.595L55.8356 30.7816V30.1739L55.7201 30.9108L56.3263 30.7242L55.5903 31.083L55.4604 31.2601V30.4753L55.3016 31.485L56.1435 31.2314L55.1236 31.7099L54.9889 31.8917L54.7676 32.1931L54.8253 32.2362L54.9552 32.0352C55.3305 32.2697 55.8597 32.1405 56.3359 31.4945C56.8122 30.8486 56.7064 29.5806 56.7064 29.5806L56.4225 29.9586L56.3889 29.7672Z" fill="white"/>
<path d="M41.9032 16.9771L41.8311 17.4364L41.9032 17.3407V16.9771Z" fill="white"/>
<path d="M42.1634 16.7759L42.1201 17.0438L42.1634 16.9864V16.7759Z" fill="white"/>
<path d="M40.7291 18.9195L40.8686 18.7377L41.8838 18.2592L41.0467 18.5128L41.2054 17.5032V18.2783L41.0563 18.4793L41.3353 18.1013L42.0762 17.7424L41.4652 17.929L41.5807 17.1922V17.7711L41.4796 17.9099L41.7202 17.5845L42.2013 17.3596L41.8164 17.4745L42.0569 17.1539L42.3312 17.0199L42.1051 17.0869L42.4563 16.6084C42.4563 16.6084 41.2198 16.8524 40.7243 17.5223C40.2288 18.1922 40.2769 18.709 40.6137 18.9961L40.4597 19.1779L40.5175 19.221L40.7291 18.9195ZM42.1724 16.7759V16.9864L42.1291 17.0438L42.1724 16.7759ZM41.9126 16.9768V17.3405L41.8405 17.4362L41.9126 16.9768Z" fill="white"/>
<path d="M40.5702 19.264L40.6953 19.0631C41.0705 19.2975 41.6046 19.1683 42.0808 18.5224C42.5571 17.8764 42.4465 16.6084 42.4465 16.6084L42.0953 17.0869L42.3214 17.0199L42.0472 17.1539L41.8066 17.4745L42.1915 17.3596L41.7104 17.5845L41.4699 17.9099L41.5709 17.7711V17.1826L41.4554 17.9195L42.0664 17.7329L41.3255 18.0917L41.0465 18.4697L41.1956 18.2688V17.484L41.0369 18.4937L41.874 18.2401L40.8589 18.7186L40.7193 18.9004L40.498 19.2018L40.5702 19.264Z" fill="white"/>
<path d="M37.54 51.0363L38.1366 50.2803L37.9009 50.3855L37.54 51.0363Z" fill="white"/>
<path d="M36.8609 51.1367L37.2121 50.6965L37.2939 50.6583L36.8128 50.553L37.4334 50.5913L38.1983 50.242L37.3997 50.0649L38.4581 50.1271L38.8911 49.9357L38.309 50.9741L39.2712 49.7683L38.9825 49.8974L39.2904 49.7587L38.0059 49.4859L39.6945 49.5864L40.623 49.1701L38.8574 48.8065L41.1859 48.9452L41.6237 48.7491L42.3261 48.438L42.2636 48.2993L42.0567 48.4093L41.8354 48.5242C41.3976 47.7251 40.3055 47.4284 38.7901 48.1031C37.2746 48.7778 36.1777 51.1798 36.1777 51.1798L37.0726 50.7779L36.8609 51.1367Z" fill="white"/>
<path d="M39.3057 50.8304L40.6239 49.1748L40.1091 49.3997L39.3057 50.8304Z" fill="white"/>
<path d="M42.3358 48.4141L41.6334 48.7251L41.1956 48.9213L38.8575 48.8064L40.6231 49.194L39.6946 49.6103L38.006 49.4859L39.2857 49.7682L38.9778 49.907L39.2664 49.7778L38.3042 50.9836L38.8864 49.9452L38.4534 50.1366L37.395 50.0744L38.1936 50.2515L37.4383 50.5912L36.8177 50.5529L37.2988 50.6582L37.217 50.6965L36.8658 51.1367L37.0775 50.7539L36.1826 51.1558C36.1826 51.1558 38.6554 51.9645 40.2286 51.2563C41.8018 50.5481 42.2492 49.572 41.9365 48.7155L42.2636 48.5959L42.3935 48.548L42.3358 48.4141ZM37.5249 51.0362L37.8905 50.3855L38.1262 50.2802L37.5249 51.0362ZM39.2953 50.8305L40.0987 49.395L40.6135 49.1653L39.2953 50.8305Z" fill="white"/>
<path d="M32.4589 4.45464L33.2238 4.36851L33.3345 4.41636L32.9881 3.86131L33.5462 4.49292L34.1812 4.74174L33.219 5.0097L34.5228 4.86615L34.6142 4.89964L34.0225 3.94266L34.9846 5.01927L35.586 5.25373L34.0273 5.67959L36.0815 5.47384L35.9757 5.43077L36.1104 5.48341L35.1482 3.98572L36.654 5.70351L37.2217 5.92362L35.0712 6.51217L37.9578 6.20115L36.6588 4.13884L38.7372 6.5026L39.3433 6.73706L40.3055 7.11507L40.3825 6.92367L40.2189 6.87104L39.7378 6.73227C40.0987 5.55039 39.3482 4.22018 37.2554 3.40674C35.0857 2.55981 31.7998 3.82782 31.7998 3.82782L33.0362 4.30631L32.4589 4.45464Z" fill="white"/>
<path d="M40.2959 7.11489L39.3337 6.73688L38.7275 6.50242L36.6444 4.13866L37.9434 6.22011L35.0568 6.53113L37.2073 5.94258L36.6396 5.72247L35.1578 3.98554L36.12 5.48323L35.9853 5.43059L36.0912 5.47365L34.0128 5.69855L35.5475 5.26312L34.9462 5.02866L33.984 3.95205L34.5757 4.90903L34.4843 4.87554L33.1805 5.01909L34.1427 4.75113L33.5077 4.50231L32.9881 3.86113L33.3345 4.41618L33.2238 4.36833L32.4589 4.45446L33.0362 4.30613L31.7998 3.82764C31.7998 3.82764 33.3585 6.96656 35.5427 7.81349C37.6307 8.62214 39.0932 8.14844 39.632 7.03833L40.2237 7.31586L40.2767 7.18188L40.3729 6.93306L40.2959 7.11489Z" fill="white"/>
<path d="M53.9454 1.12422L53.2815 1.76061L53.142 1.80368L53.8781 2.07163L52.8822 1.87545L52.021 2.12905H52.098L52.8293 1.17207L51.6987 2.25825L51.5881 2.29174L52.8437 2.77023L51.1503 2.39222L50.4094 2.60755L51.5736 1.06201L49.7695 2.79416H49.731L51.7324 3.52625L49.0334 2.99991L48.3262 3.20566L49.9331 1.07637L47.4506 3.46884L50.2121 4.47846L46.4837 3.75593L45.738 3.97604L44.54 4.3062L44.6122 4.54545L44.9201 4.43061L45.3483 4.3062C45.8727 5.68426 47.5757 6.402 50.1592 5.64598C52.8533 4.85168 55.0423 1.25819 55.0423 1.25819L53.5124 1.70798L53.9454 1.12422Z" fill="white"/>
<path d="M44.5397 4.30637L45.7376 3.95707L46.4833 3.73697L50.207 4.46428L47.4455 3.47379L49.928 1.08133L48.3211 3.21062L49.0283 3.00487L51.7272 3.53121L49.7259 2.79912H49.7644L51.5685 1.06697L50.4042 2.61251L51.1499 2.3924L52.8434 2.72256L51.5877 2.24407L51.6984 2.21057L52.829 1.12439L52.0977 2.08138H52.0207L52.8819 1.82778L53.8777 2.02396L53.1417 1.756L53.2812 1.71294L53.9451 1.07654L53.5121 1.64595L55.042 1.19616C55.042 1.19616 51.2413 -0.641252 48.5472 0.148263C45.9589 0.956917 44.9246 2.47853 45.2229 3.92358L44.6359 4.05277L44.4531 4.09105L44.5397 4.30637Z" fill="white"/>
<path d="M76.0125 44.3611L75.286 44.7726L74.8049 45.5095L74.9156 45.3372L74.8434 44.3419L74.728 45.6243L74.675 45.7056L75.7094 45.3181L74.473 46.0215L73.8091 47.0406L75.4785 46.4138L73.506 47.5287L73.174 48.0407L73.0249 45.8444L72.7651 48.6723L75.0503 47.8493L72.3273 49.3901L71.9809 49.926L71.4229 50.792L71.5912 50.9021L71.6682 50.7633L71.9039 50.3327C72.9864 50.9117 74.4345 50.4523 75.642 48.591C76.8929 46.6483 76.3156 43.2271 76.3156 43.2271L75.4303 44.5955L76.0125 44.3611Z" fill="white"/>
<path d="M75.5508 43.7344L75.4834 44.4856L75.5941 44.3181L75.5508 43.7344Z" fill="white"/>
<path d="M74.0353 44.9639L73.8477 47.0118L74.1459 46.5573L74.0353 44.9639Z" fill="white"/>
<path d="M71.9715 49.9164L72.3178 49.3805L75.0504 47.8493L72.7749 48.6962L73.0347 45.8683L73.1838 48.0646L73.5158 47.5526L75.4882 46.4377L73.8381 47.0502L74.502 46.031L75.7384 45.3276L74.7041 45.7152L74.757 45.6339L74.8724 44.3515L74.9446 45.3468L74.834 45.519L75.315 44.7822L76.0415 44.3707L75.4353 44.5955L76.3205 43.2271C76.3205 43.2271 72.9529 44.1171 71.6924 46.0597C70.4897 47.9211 70.6629 49.4092 71.6443 50.1652L71.2546 50.682L71.3316 50.7298L71.4278 50.792L71.9715 49.9164ZM75.5315 43.7343L75.5748 44.318L75.4642 44.4903L75.5315 43.7343ZM74.0353 44.9783L74.146 46.5717L73.8477 47.0502L74.0353 44.9783Z" fill="white"/>
<path d="M71.6728 54.6533L71.0811 55.3567L71.3072 55.2658L71.6728 54.6533Z" fill="white"/>
<path d="M69.3061 54.8403L67.7041 56.7591L68.3151 56.5055L69.3061 54.8403Z" fill="white"/>
<path d="M67.6799 55.0459L65.4717 57.6872L66.3136 57.3331L67.6799 55.0459Z" fill="white"/>
<path d="M63.8214 58.3763L64.5431 58.0796L68.3148 58.3763L65.462 57.6681L66.987 57.0365L69.7293 57.271L67.6606 56.7542L69.0269 56.1896L70.7444 56.3379L69.4502 56.0125L69.5561 55.9695L70.5616 54.7685L69.9409 55.8116L69.633 55.936L70.7203 55.5053L71.7258 55.5915L70.9657 55.4048L72.7938 54.644C72.7938 54.644 68.8152 53.2086 66.2221 54.3043C63.7348 55.3331 62.8544 56.9552 63.3355 58.3619L62.5898 58.6108L62.6812 58.8356L63.8214 58.3763ZM71.6825 54.6536L71.3169 55.2661L71.0908 55.357L71.6825 54.6536ZM69.3155 54.845L68.3148 56.5054L67.7039 56.759L69.3155 54.845ZM67.6894 55.046L66.3231 57.3332L65.4812 57.6873L67.6894 55.046Z" fill="white"/>
<path d="M62.9411 58.9885L63.4655 58.7253C63.6372 59.0607 63.8881 59.3497 64.1968 59.5675C64.6594 59.8798 65.2015 60.0557 65.7603 60.0747C66.6682 60.0928 67.5688 59.9097 68.3967 59.5387C70.9898 58.4621 72.7747 54.6533 72.7747 54.6533L70.9465 55.4141L71.7067 55.6007L70.7204 55.505L69.6572 55.9453L69.9651 55.8208L70.5857 54.7777L69.561 55.9835L69.4551 56.0266L70.7493 56.352L69.0318 56.2036L67.6655 56.7683L69.7342 57.285L66.9919 57.0506L65.4669 57.6822L68.315 58.376L64.5384 58.0506L63.8167 58.3473L62.6621 58.8258L62.7487 59.0411L62.9411 58.9885Z" fill="white"/>
<path d="M64.8707 8.93359L64.582 9.80445L64.76 9.63698L64.8707 8.93359Z" fill="white"/>
<path d="M65.4286 8.61278L65.2602 9.12477L65.3324 9.053L65.2025 9.18219L65.6547 9.12477L65.087 9.29224L64.5194 9.84251L65.2939 9.73724L64.3317 10.0243L63.7111 10.6272L64.9475 10.4646L63.4032 10.943L62.7104 11.6129L64.4183 11.388L62.2871 12.0197L61.9599 12.3355L61.4355 12.8427L61.5125 12.924L61.5366 12.9479L61.6232 12.857L61.8445 12.6082L61.9118 12.6656C62.5709 13.1728 63.6149 13.0532 64.707 11.9957C65.8857 10.8569 66.0396 8.39746 66.0396 8.39746L65.3661 9.04343L65.4286 8.61278Z" fill="white"/>
<path d="M64.1973 9.23486L63.7402 10.6225L64.0145 10.3498L64.1973 9.23486Z" fill="white"/>
<path d="M63.3548 9.68945L62.7197 11.6034L63.1046 11.2302L63.3548 9.68945Z" fill="white"/>
<path d="M61.3443 12.7327L61.4454 12.8332L61.9697 12.326L62.2969 12.0102L64.4281 11.3786L62.7202 11.6035L63.413 10.9336L64.9573 10.4551L63.7209 10.6178L64.3415 10.0484L65.3037 9.76126L64.5292 9.86653L65.0968 9.31627L65.6645 9.14879L65.2123 9.20621L65.3422 9.07702L65.27 9.14879L65.4288 8.61288L65.3615 9.02438L66.035 8.37842C66.035 8.37842 63.5574 8.45498 62.3787 9.59858C61.2 10.7422 61.1278 11.7231 61.6522 12.393L61.6811 12.4265L61.3443 12.7327ZM64.8707 8.93347L64.7601 9.63207L64.5821 9.80433L64.8707 8.93347ZM64.1972 9.23492L64.0192 10.3498L63.7402 10.6226L64.1972 9.23492ZM63.3553 9.68949L63.1051 11.2302L62.7202 11.6035L63.3553 9.68949Z" fill="white"/>
<path d="M41.0657 25.8385L41.4169 26.0012H41.9317L41.5131 25.7141L42.1049 25.9964H42.4368H42.4031L41.8258 26.4749L42.6581 25.9964L41.9846 25.5179L42.9468 25.9677H43.2258L42.432 26.5658L43.5818 25.9151L42.6581 25.2787L43.9667 25.9007H44.2602H44.7412V25.805H44.544H44.4382C44.3708 25.2452 43.8175 24.8193 42.788 24.848C41.7585 24.8768 40.5605 26.0156 40.5605 26.0156L41.3207 25.9869L41.0657 25.8385Z" fill="white"/>
<path d="M41.7299 25.9822L41.3643 26.2693L41.8886 25.9727L41.7299 25.9822Z" fill="white"/>
<path d="M40.9551 26.1736L41.2582 25.9966L41.1668 26.0014L40.9551 26.1736Z" fill="white"/>
<path d="M44.7412 25.872H44.2601H43.9666L42.658 25.25L43.5817 25.8864L42.4319 26.5659L43.2305 25.9247H42.9515L41.9893 25.4749L42.6629 25.9534L41.8306 26.4319L42.4079 25.9534H42.4415H42.1096L41.5179 25.6711L41.9364 25.9582H41.4216L41.0656 25.8385L41.3158 26.006L40.5557 26.0347C40.5557 26.0347 41.7921 27.0731 42.8649 27.03C43.9377 26.9869 44.414 26.5515 44.4381 25.963H44.7412V25.872ZM40.9598 26.1735L41.1715 26.0012H41.2629L40.9598 26.1735ZM41.7343 25.9821H41.8931L41.3735 26.2692L41.7343 25.9821Z" fill="white"/>
<path d="M49.581 17.7043L49.3693 17.8717L49.6724 17.6995H49.7301L49.4848 17.532L49.8312 17.6995H50.2738H50.1439L49.7831 17.9913L50.3026 17.6947H50.3459L49.9274 17.4028L50.5143 17.7043H51.0772L50.4085 17.2258L51.3707 17.6755H52.0009L51.0772 17.0439L52.3858 17.6612H52.6841H53.1651V17.5655L52.8621 17.599C52.7995 17.0391 52.2414 16.6133 51.2119 16.642C50.1824 16.6707 48.9893 17.8047 48.9893 17.8047L49.581 17.7043Z" fill="white"/>
<path d="M50.8175 17.6756L50.2402 18.1397L51.0725 17.666L50.8175 17.6756Z" fill="white"/>
<path d="M50.8467 18.2831L51.9965 17.6323L51.6453 17.6467L50.8467 18.2831Z" fill="white"/>
<path d="M52.6799 17.6085H52.3816L51.073 16.9912L51.9967 17.6228H51.3665L50.4043 17.173L51.073 17.6515L50.5149 17.7042L49.9184 17.4219L50.3369 17.7137H50.2936L49.7741 18.0104L50.1349 17.7185H50.2648H49.8222L49.4758 17.551L49.7211 17.7185H49.6634L49.3603 17.8908L49.572 17.7233H48.9658C48.9658 17.7233 50.1974 18.7616 51.2703 18.7234C52.3431 18.6851 52.8194 18.2209 52.8434 17.6563H53.1465V17.5606L52.6799 17.6085ZM50.818 17.6755H51.073L50.2407 18.154L50.818 17.6755ZM50.8469 18.2831L51.6455 17.6467H51.9967L50.8469 18.2831Z" fill="white"/>
<path d="M49.9425 14.3929L49.6586 14.6034H49.6057L49.8703 14.7374L49.5047 14.6178L49.1968 14.6656L49.5191 14.3354L49.038 14.6895H48.9947L49.447 14.924L48.8215 14.7135L48.48 14.7709H48.5281L49.0717 14.2493L48.2779 14.8331L48.9995 15.2063L48.0037 14.8761L47.7246 14.9192L48.4415 14.1919L47.3783 14.9718L48.3741 15.4934L46.9982 15.0149L46.7047 15.058L46.2236 15.1345V15.2254L46.3343 15.2015L46.5219 15.1585C46.6518 15.7087 47.258 16.0628 48.2731 15.9049C49.2882 15.747 50.3418 14.4694 50.3418 14.4694L49.7404 14.5651L49.9425 14.3929Z" fill="white"/>
<path d="M46.2184 15.1442L46.6995 15.0676L46.993 15.0245L48.3689 15.503L47.373 14.9815L48.4362 14.2015L47.7194 14.9288L47.9984 14.8858L48.9943 15.2159L48.2727 14.8427L49.0424 14.2733L48.5228 14.8044H48.4747L48.8163 14.747L49.4417 14.9576L48.9895 14.7231H49.0328L49.5139 14.369L49.1915 14.6992L49.4994 14.6513L49.8651 14.7709L49.6005 14.637H49.6534L49.9372 14.4264L49.7448 14.6226L50.3462 14.5269C50.3462 14.5269 48.9991 13.6417 47.9407 13.8092C46.8823 13.9766 46.4589 14.4934 46.4974 15.058H46.3339H46.1943L46.2184 15.1442Z" fill="white"/>
<path d="M68.0313 21.9006L67.7764 22.0729L67.8341 22.1447L68.2093 21.8528L68.4451 21.671L69.8884 21.4078L68.7674 21.4365L69.2774 20.2403L69.008 21.2212L69.2437 21.0393L70.278 20.8479H69.465L69.5131 20.8097L69.4746 20.8384L69.8739 19.9723L69.6767 20.6853L69.9076 20.5034L70.5571 20.3838H70.0471H70.0808L70.331 19.8383L70.2059 20.2833L70.4512 20.0919L70.8361 20.0249H70.533L70.5763 19.9914L70.7255 19.6709L70.6533 19.934L71.1344 19.5608C71.1344 19.5608 69.5227 19.4412 68.6808 20.0967C68.5009 20.2355 68.3392 20.3962 68.1997 20.5752C68.1435 20.6484 68.092 20.7251 68.0458 20.8049C67.9603 20.9522 67.9048 21.1148 67.8822 21.2834C67.8535 21.5004 67.9066 21.7203 68.0313 21.9006Z" fill="white"/>
<path d="M70.721 19.6901L70.5719 20.0107L70.5286 20.0442H70.8317L70.4468 20.1112L70.2014 20.3026L70.3265 19.8576L70.0764 20.4031H70.0427H70.5526L69.9032 20.5227L69.6722 20.7045L69.8695 19.9916L69.4702 20.8577L69.5087 20.8289L69.4606 20.8672H70.2736L69.2393 21.0586L69.0035 21.2405L69.2777 20.2404L68.7341 21.4366L69.8551 21.4079L68.4118 21.6711L68.176 21.8529L67.8008 22.1448L67.8585 22.2214L68.0365 22.0635L68.0846 22.0156C68.4695 22.4319 69.1719 22.451 69.9849 21.8242C70.798 21.1974 71.0963 19.5801 71.0963 19.5801L70.6152 19.9533L70.721 19.6901Z" fill="white"/>
<path d="M62.3736 20.604L62.085 21.1303L62.2149 21.0394L62.3736 20.604Z" fill="white"/>
<path d="M62.7729 20.4701L62.6094 20.7763L62.6527 20.7476L62.5612 20.8098H62.8595L62.4747 20.8529L62.0465 21.14H62.5564L61.9021 21.2118L61.498 21.4845L61.6568 21.3745L61.9021 20.6806L61.4499 21.518L62.263 21.5563L61.219 21.6711L60.9881 21.829L61.3248 20.872L60.6946 22.0252L61.8156 22.0778L60.3723 22.2405L60.1269 22.408L59.7324 22.6712L59.7853 22.7525L60.0259 22.5659C60.3771 23.0061 61.0747 23.0731 61.9262 22.5037C62.7777 21.9343 63.1963 20.3457 63.1963 20.3457L62.7152 20.6806L62.7729 20.4701Z" fill="white"/>
<path d="M59.7758 22.7953L59.7228 22.7139L60.1173 22.4508L60.3627 22.2833L61.806 22.1206L60.685 22.068L61.3153 20.9148L60.9785 21.8718L61.2094 21.7139L62.2534 21.599L61.4403 21.5608L61.8926 20.7234L61.6472 21.4172L61.4885 21.5273L61.8926 21.2545L62.5469 21.1827H62.0369L62.4651 20.8956L62.8499 20.8526H62.5517L62.6431 20.7904L62.5998 20.8191L62.7634 20.5129L62.6768 20.7665L63.1578 20.4315C63.1578 20.4315 61.5606 20.197 60.6706 20.7952C59.7806 21.3933 59.6555 22.0105 59.9345 22.489L59.6699 22.6422L59.7758 22.7953ZM62.3689 20.6038L62.2197 21.0392L62.085 21.1253L62.3689 20.6038Z" fill="white"/>
<path d="M45.0445 9.38314C44.0823 8.90464 42.5332 9.29222 42.5332 9.29222L43.2019 9.64152L43.072 9.37357L43.2933 9.68937L43.7744 9.92862L43.5531 9.45013L43.9284 9.99082L44.4095 10.2492L44.0583 9.5219L44.6596 10.3784L45.2177 10.6703L44.7366 9.66545L45.5641 10.8473L45.8239 10.9861L46.2472 11.2062L46.2905 11.1201L46.0019 11.0052C46.228 10.5267 45.9586 9.85685 45.0445 9.38314Z" fill="white"/>
<path d="M43.5722 9.83301L43.1104 9.90957H43.7117L43.5722 9.83301Z" fill="white"/>
<path d="M43.0721 9.57471L42.8027 9.61777H43.1539L43.0721 9.57471Z" fill="white"/>
<path d="M44.1687 10.144L43.4326 10.2637H44.3948L44.1687 10.144Z" fill="white"/>
<path d="M43.8896 10.6895H45.2127L44.8999 10.5269L43.8896 10.6895Z" fill="white"/>
<path d="M45.8143 11.0054L45.5545 10.8666L44.7415 9.68475L45.2226 10.6896L44.6645 10.3977L44.0632 9.5412L44.4143 10.2685L43.9333 10.0101L43.558 9.46943L43.7793 9.94792L43.2982 9.70867L43.0769 9.39287L43.2068 9.66082L42.5381 9.31152C42.5381 9.31152 43.0913 10.8236 44.0391 11.3164C44.9869 11.8093 45.6411 11.6466 45.9635 11.1681L46.2233 11.326L46.3099 11.1585L46.2666 11.2446L45.8143 11.0054ZM43.0721 9.56991L43.1539 9.61298H42.8171L43.0721 9.56991ZM43.5532 9.8283L43.6927 9.90486H43.1106L43.5532 9.8283ZM43.4137 10.2589L44.1497 10.1393L44.3711 10.2589H43.4137ZM43.8948 10.6848L44.9051 10.5221L45.2178 10.6848H43.8948Z" fill="white"/>
<path d="M62.2633 25.7668L61.9265 25.5801H61.4118L61.8111 25.896L61.2338 25.5754H60.6709L61.3059 26.0826L60.3918 25.5658H60.1128L60.9547 24.9868L59.7616 25.5562L60.618 26.2022L59.3575 25.494H59.0592H58.5781V25.5897H58.8812C58.8812 26.1543 59.4297 26.6185 60.4592 26.652C61.4887 26.6855 62.7636 25.6471 62.7636 25.6471L62.0035 25.6184L62.2633 25.7668Z" fill="white"/>
<path d="M58.9095 25.4031L58.6064 25.3744V25.4653H59.0875H59.3858L60.6174 26.2022L59.7418 25.5084L60.9349 24.939L60.1363 25.5179H60.4154L61.3294 26.0347L60.6944 25.5275H61.2573L61.8346 25.8481L61.4353 25.5323H61.95L62.2868 25.7189L62.0511 25.5323L62.8112 25.561C62.8112 25.561 61.6518 24.4365 60.5789 24.403C59.5061 24.3695 58.9721 24.8433 58.9095 25.4031ZM62.4023 25.4318L62.1762 25.5849H62.0847L62.4023 25.4318ZM61.6133 25.5658H61.4545L61.9933 25.3074L61.6133 25.5658ZM60.9397 25.5658H60.6848L61.5507 25.1543L60.9397 25.5658Z" fill="white"/>
<path d="M61.6138 25.5707L61.9987 25.3027L61.4551 25.5611L61.6138 25.5707Z" fill="white"/>
<path d="M62.4025 25.4316L62.085 25.5848H62.1764L62.4025 25.4316Z" fill="white"/>
<path d="M60.9405 25.5466L61.5515 25.1255L60.6855 25.537L60.9405 25.5466Z" fill="white"/>
<path d="M33.4165 17.3071C33.4839 16.2449 32.4543 14.9912 32.4543 14.9912L32.4111 15.6563V15.5941L32.2619 15.3644L32.4062 15.685V15.7424L32.6035 15.5128L32.4014 15.8429V16.1539L32.1464 15.7903L32.3918 16.3358V16.3788L32.7238 15.9913L32.3822 16.5511V16.8478L31.9781 16.2257L32.3678 17.0966L32.897 16.4793L32.3533 17.3693V17.6516L31.752 16.7903L32.2812 17.9914L33.0076 17.1396L32.2571 18.3742L32.233 18.6613V19.1398H32.3293V18.8383C32.8681 18.8383 33.3492 18.3311 33.4165 17.3071Z" fill="white"/>
<path d="M32.233 18.6613V18.3646L32.9835 17.1301L32.2812 17.9914L31.752 16.7903L32.31 17.6469V17.3645L32.8537 16.4745L32.3245 17.0918L31.9348 16.2209L32.3389 16.843V16.5463L32.7141 15.9673L32.3822 16.3549V16.3119L32.1464 15.7903L32.4014 16.1779V15.8669L32.6035 15.5367L32.4062 15.7664V15.709L32.2619 15.3884L32.4111 15.618V15.6802L32.4543 15.0151C32.4543 15.0151 31.3142 16.1061 31.2709 17.1731C31.2276 18.2402 31.6172 18.757 32.1801 18.8383L32.1368 19.135H32.233V18.6613Z" fill="white"/>
<path d="M44.6162 91.9806C44.6162 91.9806 47.6278 78.645 34.8115 70.8168C34.8115 70.8168 24.5834 66.6826 24.8144 65.3955C24.8144 65.3955 24.4343 71.9174 31.7565 74.8122C39.0788 77.7071 37.0486 79.157 34.518 79.3866C31.9875 79.6163 15.2743 74.4438 15.2743 74.4438C15.2743 74.4438 10.5836 58.4765 3.95898 59.4335C3.95898 59.4335 8.04347 68.8502 8.6737 71.8743C9.30393 74.8984 10.4056 80.4872 11.6276 80.9657C12.8496 81.4442 23.7271 82.4012 30.905 84.8367C38.0829 87.2722 44.6162 91.9806 44.6162 91.9806Z" fill="white"/>
<path d="M9.38131 75.1857L5.25835 66.0322C4.61741 65.2887 3.80275 64.7132 2.8859 64.3561C1.96905 63.999 0.978072 63.8713 0 63.9842C0 63.9842 0.0336766 65.7546 2.31406 67.7547C4.59444 69.7548 9.38131 75.1857 9.38131 75.1857Z" fill="white"/>
<path d="M9.90114 78.2194L5.1287 72.0563C5.1287 72.0563 3.20433 69.2763 0.40918 70.3051C1.02932 71.8912 2.17484 73.2196 3.65656 74.0708C6.02354 75.3197 9.90114 78.2194 9.90114 78.2194Z" fill="white"/>
<path d="M47.6759 92C47.6759 92 44.8278 78.6022 57.7789 70.9463C57.7789 70.9463 68.0646 66.9461 67.8481 65.6589C67.8481 65.6589 68.1416 72.1808 60.7809 74.98C53.4202 77.7792 55.4456 79.2529 57.9569 79.5161C60.4682 79.7793 77.2631 74.8316 77.2631 74.8316C77.2631 74.8316 82.1943 58.9457 88.7805 59.9983C88.7805 59.9983 84.5709 69.3577 83.9022 72.3674C83.2335 75.3771 82.0548 80.9516 80.828 81.4157C79.6012 81.8799 68.7093 82.6742 61.4977 85.0331C54.2861 87.3921 47.6759 92 47.6759 92Z" fill="white"/>
<path d="M83.1328 75.6739L87.3809 66.5825C88.0331 65.8478 88.8568 65.2838 89.7796 64.94C90.7023 64.5963 91.6959 64.4833 92.6729 64.6111C92.6729 64.6111 92.6103 66.3768 90.3059 68.3481C88.0015 70.3195 83.1328 75.6739 83.1328 75.6739Z" fill="white"/>
<path d="M82.5752 78.7027L87.4294 72.6019C87.4294 72.6019 89.3778 69.8506 92.173 70.9129C91.5322 72.4916 90.3699 73.8063 88.8775 74.6403C86.4961 75.8557 82.5752 78.7027 82.5752 78.7027Z" fill="white"/>
<path d="M82.8926 80.2339L87.4437 76.7984C87.4437 76.7984 89.32 75.2002 91.1048 76.4586C90.364 77.4598 89.3014 78.179 88.0932 78.497C86.3275 78.9761 84.5911 79.5561 82.8926 80.2339Z" fill="white"/>
<path d="M9.90081 80.2339L5.35448 76.7984C5.35448 76.7984 3.47821 75.2002 1.69336 76.4586C2.43414 77.4598 3.49677 78.179 4.705 78.497C6.46918 78.9758 8.20401 79.5558 9.90081 80.2339Z" fill="white"/>
</g>
<defs>
<clipPath id="clip0_236_2088">
<rect width="350" height="92" fill="white"/>
</clipPath>
</defs>
</svg>
